<?xml version="1.0" encoding="UTF-8"?>
<svg version="1.1" xmlns="http://www.w3.org/2000/svg" width="1024" height="1024">
<path d="M0 0 C337.92 0 675.84 0 1024 0 C1024 337.92 1024 675.84 1024 1024 C686.08 1024 348.16 1024 0 1024 C0 686.08 0 348.16 0 0 Z " fill="#FDFDFD" transform="translate(0,0)"/>
<path d="M0 0 C10.37751887 8.37043829 17.00673363 21.41867409 18.77734375 34.49609375 C19.32228291 44.00030146 19.080842 53.48553093 17.96484375 62.93359375 C17.54781339 66.88689763 17.54781339 66.88689763 18.7890625 70.54296875 C20.25820829 72.3970239 20.25820829 72.3970239 22.77734375 74.49609375 C24.37823394 77.69787414 24.13467035 81.01378362 23.77734375 84.49609375 C21.71428039 90.14237242 18.63317593 93.03156443 13.33984375 95.74609375 C10.38622391 96.61056785 7.83922404 96.63850679 4.77734375 96.49609375 C4.85082031 97.32367188 4.92429687 98.15125 5 99.00390625 C4.71691436 103.44388096 3.24538591 106.4692224 1.21484375 110.37109375 C0.85132813 111.07999756 0.4878125 111.78890137 0.11328125 112.51928711 C-3.13753257 118.67048948 -6.74057691 123.93133639 -12.40234375 128.1015625 C-16.91339388 131.4725886 -16.91339388 131.4725886 -18.94921875 136.6015625 C-19.19441998 139.58951461 -19.3013626 142.50033333 -19.22265625 145.49609375 C-18.62324219 145.75390625 -18.02382813 146.01171875 -17.40625 146.27734375 C-15.03636001 147.60007305 -13.92194195 148.85603045 -12.28515625 150.99609375 C-9.79213528 153.97283521 -8.17215126 155.76130398 -4.22265625 156.49609375 C-2.82327789 156.33720019 -1.42740277 156.14609453 -0.03515625 155.93359375 C5.37205541 155.13252536 9.73069988 156.63125875 14.77734375 158.49609375 C14.34591022 159.87300927 13.90683211 161.24752994 13.46484375 162.62109375 C13.22121094 163.38679687 12.97757813 164.1525 12.7265625 164.94140625 C12.41332031 165.78445313 12.10007812 166.6275 11.77734375 167.49609375 C11.4009375 168.53121094 11.02453125 169.56632813 10.63671875 170.6328125 C8.19378221 174.39472948 5.48204515 175.10733624 1.33984375 176.18359375 C-4.93529388 177.86515455 -4.93529388 177.86515455 -10.22265625 181.49609375 C-10.82067963 183.58732123 -10.82067963 183.58732123 -10.73059082 185.95454407 C-10.74750977 187.32343781 -10.74750977 187.32343781 -10.76477051 188.71998596 C-10.75667358 189.71900436 -10.74857666 190.71802277 -10.74023438 191.74731445 C-10.74724365 192.80125397 -10.75425293 193.85519348 -10.76147461 194.94107056 C-10.77911952 198.43493792 -10.76740575 201.92799898 -10.75390625 205.421875 C-10.75659989 207.84702205 -10.76048123 210.27216805 -10.76550293 212.6973114 C-10.77140731 217.78586078 -10.7628067 222.87412966 -10.74414062 227.96264648 C-10.7213874 234.48307117 -10.73444588 241.00283599 -10.75843048 247.52323627 C-10.7728939 252.53414365 -10.76827922 257.544895 -10.75791931 262.55580711 C-10.75525166 264.95955674 -10.75852309 267.36332055 -10.76783752 269.7670536 C-10.77800746 273.13064615 -10.76249257 276.49317594 -10.74023438 279.85668945 C-10.7483313 280.84963516 -10.75642822 281.84258087 -10.76477051 282.86561584 C-10.74785156 284.24719879 -10.74785156 284.24719879 -10.73059082 285.6566925 C-10.72832867 286.84825691 -10.72832867 286.84825691 -10.72602081 288.06389332 C-10.20870674 291.32857078 -10.20870674 291.32857078 -6.22265625 296.49609375 C-42.85265625 296.49609375 -79.48265625 296.49609375 -117.22265625 296.49609375 C-117.28453125 285.04921875 -117.34640625 273.60234375 -117.41015625 261.80859375 C-117.43746826 258.19962158 -117.46478027 254.59064941 -117.49291992 250.87231445 C-117.50646973 246.45153809 -117.50646973 246.45153809 -117.50898743 244.37931824 C-117.51358198 242.93784301 -117.52410805 241.49637903 -117.53938293 240.05497742 C-117.56140948 237.86628311 -117.56437213 235.67829083 -117.56323242 233.48950195 C-117.56989426 232.25706253 -117.57655609 231.02462311 -117.5834198 229.75483704 C-117.18858865 226.18836428 -116.3593135 224.34686902 -114.22265625 221.49609375 C-110.80939377 218.95802678 -109.58353281 218.49609375 -105.22265625 218.49609375 C-105.22265625 198.69609375 -105.22265625 178.89609375 -105.22265625 158.49609375 C-94.55598958 154.94053819 -94.55598958 154.94053819 -89.22265625 154.49609375 C-88.89265625 154.82609375 -88.56265625 155.15609375 -88.22265625 155.49609375 C-85.04860187 155.77535605 -82.25473173 155.47260759 -79.22265625 154.49609375 C-76.45321669 152.12674208 -74.37955416 149.41776432 -72.22265625 146.49609375 C-71.56265625 145.83609375 -70.90265625 145.17609375 -70.22265625 144.49609375 C-69.15894159 140.61824792 -69.13819917 137.3698753 -70.22265625 133.49609375 C-72.47470193 131.12475833 -74.82229854 129.21051319 -77.44384766 127.26538086 C-85.84503608 120.97129463 -90.68612352 111.61071495 -93.22265625 101.49609375 C-93.3203125 98.67578125 -93.3203125 98.67578125 -93.22265625 96.49609375 C-94.41890625 96.57859375 -95.61515625 96.66109375 -96.84765625 96.74609375 C-101.35462489 96.73813091 -103.7355366 95.42844436 -107.22265625 92.49609375 C-111.27732723 88.00307996 -112.57177416 84.67494643 -112.515625 78.5546875 C-112.04406398 75.24118541 -110.23190564 73.09629884 -108.22265625 70.49609375 C-106.70568373 68.12582419 -106.17283458 66.9790425 -106.46484375 64.1484375 C-106.67367188 63.25253906 -106.8825 62.35664063 -107.09765625 61.43359375 C-109.71550755 47.45461003 -110.12254686 31.10824342 -102.53515625 18.62109375 C-99.48628608 14.44695479 -95.84622897 10.88275578 -91.22265625 8.49609375 C-89.90265625 8.49609375 -88.58265625 8.49609375 -87.22265625 8.49609375 C-87.03703125 7.83609375 -86.85140625 7.17609375 -86.66015625 6.49609375 C-82.41962533 -2.3537099 -75.34608844 -7.26323011 -66.22265625 -10.50390625 C-43.36739444 -16.13259645 -19.59989923 -13.26179473 0 0 Z " fill="#70B9E1" transform="translate(543.22265625,298.50390625)"/>
<path d="M0 0 C10.37751887 8.37043829 17.00673363 21.41867409 18.77734375 34.49609375 C19.32228291 44.00030146 19.080842 53.48553093 17.96484375 62.93359375 C17.54781339 66.88689763 17.54781339 66.88689763 18.7890625 70.54296875 C20.25820829 72.3970239 20.25820829 72.3970239 22.77734375 74.49609375 C24.37823394 77.69787414 24.13467035 81.01378362 23.77734375 84.49609375 C21.71428039 90.14237242 18.63317593 93.03156443 13.33984375 95.74609375 C10.38622391 96.61056785 7.83922404 96.63850679 4.77734375 96.49609375 C4.89335938 97.72972656 4.89335938 97.72972656 5.01171875 98.98828125 C4.7084102 103.52779922 3.11170598 106.63715317 1.02734375 110.62109375 C0.67929687 111.32363281 0.33125 112.02617187 -0.02734375 112.75 C-2.1341891 116.87785625 -3.78473435 119.05817185 -7.22265625 122.49609375 C-7.22265625 111.93609375 -7.22265625 101.37609375 -7.22265625 90.49609375 C-10.19265625 90.49609375 -13.16265625 90.49609375 -16.22265625 90.49609375 C-18.23487672 89.86727485 -20.23542357 89.19990532 -22.22265625 88.49609375 C-24.6021364 88.16926398 -26.97363378 87.93864333 -29.3671875 87.7421875 C-31.22265625 87.49609375 -31.22265625 87.49609375 -32.22265625 86.49609375 C-38.04417866 85.37867401 -43.74794939 85.37825992 -49.66015625 85.43359375 C-51.04364258 85.44036133 -51.04364258 85.44036133 -52.45507812 85.44726562 C-54.71100673 85.45895437 -56.96679592 85.4753392 -59.22265625 85.49609375 C-59.71765625 86.98109375 -59.71765625 86.98109375 -60.22265625 88.49609375 C-66.44670633 89.62773922 -72.93887495 90.47194948 -79.22265625 89.49609375 C-81.97265625 86.74609375 -81.97265625 86.74609375 -83.22265625 83.49609375 C-83.22265625 82.17609375 -83.22265625 80.85609375 -83.22265625 79.49609375 C-83.88265625 79.49609375 -84.54265625 79.49609375 -85.22265625 79.49609375 C-86.6953125 77.4140625 -86.6953125 77.4140625 -88.28515625 74.68359375 C-88.81238281 73.79027344 -89.33960938 72.89695312 -89.8828125 71.9765625 C-91.22265625 69.49609375 -91.22265625 69.49609375 -92.22265625 66.49609375 C-94.22282091 65.28727279 -94.22282091 65.28727279 -96.22265625 64.49609375 C-94.34405778 71.93633242 -92.09445915 78.04107726 -88.03515625 84.49609375 C-83.94482279 91.18903109 -83.09121153 96.72332952 -83.22265625 104.49609375 C-83.2142843 105.95314807 -83.20238353 107.41018514 -83.1875 108.8671875 C-83.15700301 112.74454114 -83.17786211 116.61891244 -83.22265625 120.49609375 C-90.2004385 114.11343152 -92.76849498 105.73070631 -93.22265625 96.49609375 C-94.41890625 96.57859375 -95.61515625 96.66109375 -96.84765625 96.74609375 C-101.35462489 96.73813091 -103.7355366 95.42844436 -107.22265625 92.49609375 C-111.27732723 88.00307996 -112.57177416 84.67494643 -112.515625 78.5546875 C-112.04406398 75.24118541 -110.23190564 73.09629884 -108.22265625 70.49609375 C-106.70568373 68.12582419 -106.17283458 66.9790425 -106.46484375 64.1484375 C-106.67367188 63.25253906 -106.8825 62.35664063 -107.09765625 61.43359375 C-109.71550755 47.45461003 -110.12254686 31.10824342 -102.53515625 18.62109375 C-99.48628608 14.44695479 -95.84622897 10.88275578 -91.22265625 8.49609375 C-89.90265625 8.49609375 -88.58265625 8.49609375 -87.22265625 8.49609375 C-87.03703125 7.83609375 -86.85140625 7.17609375 -86.66015625 6.49609375 C-82.41962533 -2.3537099 -75.34608844 -7.26323011 -66.22265625 -10.50390625 C-43.36739444 -16.13259645 -19.59989923 -13.26179473 0 0 Z " fill="#ECA77D" transform="translate(543.22265625,298.50390625)"/>
<path d="M0 0 C2.01822917 0.06510417 4.03645833 0.13020833 6.0546875 0.1953125 C6.3846875 1.1853125 6.7146875 2.1753125 7.0546875 3.1953125 C7.5703125 2.7003125 8.0859375 2.2053125 8.6171875 1.6953125 C11.92189954 -0.33835645 14.23922528 -0.1515477 18.0546875 0.1953125 C19.0446875 0.8553125 20.0346875 1.5153125 21.0546875 2.1953125 C21.0546875 2.8553125 21.0546875 3.5153125 21.0546875 4.1953125 C21.7146875 3.8653125 22.3746875 3.5353125 23.0546875 3.1953125 C29.52527574 2.84237132 29.52527574 2.84237132 33.0546875 5.1953125 C33.0546875 6.1853125 33.0546875 7.1753125 33.0546875 8.1953125 C34.941875 8.1025 34.941875 8.1025 36.8671875 8.0078125 C39.43174594 8.02596867 40.76932523 8.0437138 43.0546875 9.2578125 C46.08468505 15.12843275 43.26418853 21.47796357 41.41796875 27.328125 C40.0546875 30.1953125 40.0546875 30.1953125 37.61328125 32.6015625 C34.63768006 35.61804981 33.25936568 38.675529 31.8046875 42.5703125 C31.54945313 43.20453125 31.29421875 43.83875 31.03125 44.4921875 C28.02465897 52.11031754 28.02465897 52.11031754 29.1640625 59.890625 C29.97617187 61.09332031 29.97617187 61.09332031 30.8046875 62.3203125 C31.60132813 63.53074219 31.60132813 63.53074219 32.4140625 64.765625 C33.22617187 65.96832031 33.22617187 65.96832031 34.0546875 67.1953125 C34.68117188 68.39800781 34.68117188 68.39800781 35.3203125 69.625 C37.03094032 72.16011961 38.26491472 73.08626419 40.70703125 74.8046875 C43.05182814 76.73286478 43.94087031 77.71848817 44.65283203 80.70117188 C44.81529992 83.64494747 44.76478288 86.50107219 44.6171875 89.4453125 C44.60236328 90.45078125 44.58753906 91.45625 44.57226562 92.4921875 C44.37886581 99.87113419 44.37886581 99.87113419 42.0546875 102.1953125 C40.09936523 102.43823242 40.09936523 102.43823242 37.73828125 102.42578125 C36.89201172 102.42384766 36.04574219 102.42191406 35.17382812 102.41992188 C34.28888672 102.40767578 33.40394531 102.39542969 32.4921875 102.3828125 C31.60337891 102.38216797 30.71457031 102.38152344 29.79882812 102.38085938 C23.19489847 102.33552347 23.19489847 102.33552347 22.0546875 101.1953125 C21.71838568 97.26654102 21.7296638 93.32412501 21.6796875 89.3828125 C21.62361328 87.72282227 21.62361328 87.72282227 21.56640625 86.02929688 C21.47709391 77.82744667 21.47709391 77.82744667 24.578125 74.43359375 C25.39539063 74.02496094 26.21265625 73.61632812 27.0546875 73.1953125 C25.50542572 68.86721611 23.31103595 65.06577299 20.8671875 61.1953125 C20.50560547 60.59203125 20.14402344 59.98875 19.77148438 59.3671875 C16.61604351 54.37062021 14.28431031 52.93075736 9.0546875 49.1953125 C8.7246875 82.1953125 8.3946875 115.1953125 8.0546875 149.1953125 C-46.3953125 149.1953125 -100.8453125 149.1953125 -156.9453125 149.1953125 C-156.9453125 148.8653125 -156.9453125 148.5353125 -156.9453125 148.1953125 C-120.6453125 147.8653125 -84.3453125 147.5353125 -46.9453125 147.1953125 C-48.2653125 145.5453125 -49.5853125 143.8953125 -50.9453125 142.1953125 C-51.45147038 139.88895321 -51.45147038 139.88895321 -51.4599762 137.4828949 C-51.47270065 136.56465942 -51.48542511 135.64642395 -51.49853516 134.70036316 C-51.49200928 133.70539322 -51.4854834 132.71042328 -51.47875977 131.68530273 C-51.49168312 130.09913651 -51.49168312 130.09913651 -51.50486755 128.48092651 C-51.52755626 124.98833693 -51.52078386 121.49654767 -51.51171875 118.00390625 C-51.51695238 115.57682557 -51.5232279 113.14974693 -51.53050232 110.72267151 C-51.54091146 105.63768945 -51.53633642 100.55298715 -51.52172852 95.46801758 C-51.50452548 88.94511344 -51.52805322 82.42308887 -51.56321812 75.90028286 C-51.58515338 70.8894515 -51.58376019 65.87883195 -51.5754528 60.86796761 C-51.57463145 58.46255592 -51.58152972 56.05712896 -51.59622383 53.65176201 C-51.61360071 50.29259616 -51.59918344 46.93502859 -51.57641602 43.57592773 C-51.59395432 42.08043648 -51.59395432 42.08043648 -51.61184692 40.55473328 C-51.51877911 33.82200074 -51.51877911 33.82200074 -48.59385681 30.62562561 C-45.7110028 29.06877649 -42.94544554 27.93219662 -39.8203125 26.9453125 C-38.78648437 26.61015625 -37.75265625 26.275 -36.6875 25.9296875 C-33.9453125 25.1953125 -33.9453125 25.1953125 -30.9453125 25.1953125 C-30.5740625 23.98875 -30.5740625 23.98875 -30.1953125 22.7578125 C-28.68452603 18.45207107 -26.84342394 14.34167243 -24.9453125 10.1953125 C-21.00463079 11.50887307 -19.55428473 14.03297345 -17.1953125 17.2578125 C-16.30018137 18.45202579 -15.40304438 19.64473821 -14.50390625 20.8359375 C-14.06675293 21.41537109 -13.62959961 21.99480469 -13.17919922 22.59179688 C-10.00327653 26.71911389 -6.45393154 30.52929816 -2.9609375 34.38671875 C-2.31640625 35.10730469 -1.671875 35.82789063 -1.0078125 36.5703125 C-0.42128906 37.21742188 0.16523437 37.86453125 0.76953125 38.53125 C2.0546875 40.1953125 2.0546875 40.1953125 2.0546875 42.1953125 C6.08852878 40.12388049 7.98325549 38.22915378 10.0546875 34.1953125 C9.2915625 34.0921875 8.5284375 33.9890625 7.7421875 33.8828125 C4.85660938 33.14464135 3.79288933 32.57390447 2.0546875 30.1953125 C2.0546875 29.2053125 2.0546875 28.2153125 2.0546875 27.1953125 C1.3946875 27.5253125 0.7346875 27.8553125 0.0546875 28.1953125 C-3.4453125 28.3828125 -3.4453125 28.3828125 -6.9453125 28.1953125 C-8.9453125 26.1953125 -8.9453125 26.1953125 -9.21875 22.59375 C-9.10207592 18.06393003 -7.99773123 14.09454949 -6.5703125 9.8203125 C-6.34859375 9.11003906 -6.126875 8.39976562 -5.8984375 7.66796875 C-3.53953633 0.35537513 -3.53953633 0.35537513 0 0 Z " fill="#F2F2F4" transform="translate(582.9453125,446.8046875)"/>
<path d="M0 0 C0 20.46 0 40.92 0 62 C25.08 62 50.16 62 76 62 C76.25 97.125 76.25 97.125 76.29785156 108.19189453 C76.33109561 111.48231416 76.33109561 111.48231416 76.36956787 114.77267456 C76.38412577 116.23152331 76.39095123 117.69046228 76.39154053 119.14938354 C76.3939685 121.36727766 76.42138173 123.583642 76.45410156 125.80126953 C76.46298401 127.04925323 76.47186646 128.29723694 76.48101807 129.58303833 C77.0935341 133.61582575 78.5579476 135.77936107 81 139 C81.33 139.66 81.66 140.32 82 141 C45.37 141 8.74 141 -29 141 C-29.061875 129.553125 -29.12375 118.10625 -29.1875 106.3125 C-29.21481201 102.70352783 -29.24212402 99.09455566 -29.27026367 95.3762207 C-29.28381348 90.95544434 -29.28381348 90.95544434 -29.28633118 88.88322449 C-29.29092573 87.44174926 -29.3014518 86.00028528 -29.31672668 84.55888367 C-29.33875323 82.37018936 -29.34171588 80.18219708 -29.34057617 77.9934082 C-29.34723801 76.76096878 -29.35389984 75.52852936 -29.36076355 74.25874329 C-28.9659324 70.69227053 -28.13665725 68.85077527 -26 66 C-22.58673752 63.46193303 -21.36087656 63 -17 63 C-17 43.2 -17 23.4 -17 3 C-4 -1.33333333 -4 -1.33333333 0 0 Z " fill="#3B6996" transform="translate(455,454)"/>
<path d="M0 0 C10.37751887 8.37043829 17.00673363 21.41867409 18.77734375 34.49609375 C19.32228291 44.00030146 19.080842 53.48553093 17.96484375 62.93359375 C17.54781339 66.88689763 17.54781339 66.88689763 18.7890625 70.54296875 C20.25820829 72.3970239 20.25820829 72.3970239 22.77734375 74.49609375 C24.37823394 77.69787414 24.13467035 81.01378362 23.77734375 84.49609375 C21.71428039 90.14237242 18.63317593 93.03156443 13.33984375 95.74609375 C10.38622391 96.61056785 7.83922404 96.63850679 4.77734375 96.49609375 C4.89335938 97.72972656 4.89335938 97.72972656 5.01171875 98.98828125 C4.7084102 103.52779922 3.11170598 106.63715317 1.02734375 110.62109375 C0.67929687 111.32363281 0.33125 112.02617187 -0.02734375 112.75 C-2.1341891 116.87785625 -3.78473435 119.05817185 -7.22265625 122.49609375 C-7.22265625 111.93609375 -7.22265625 101.37609375 -7.22265625 90.49609375 C-10.19265625 90.49609375 -13.16265625 90.49609375 -16.22265625 90.49609375 C-19.78515625 89.49609375 -19.78515625 89.49609375 -22.22265625 88.49609375 C-19.06759483 87.55989562 -16.25679123 87.39038145 -12.97265625 87.43359375 C-11.63460937 87.44712891 -11.63460937 87.44712891 -10.26953125 87.4609375 C-9.5940625 87.47253906 -8.91859375 87.48414063 -8.22265625 87.49609375 C-7.88492188 86.59246094 -7.5471875 85.68882812 -7.19921875 84.7578125 C-6.75320313 83.57832031 -6.3071875 82.39882813 -5.84765625 81.18359375 C-5.18636719 79.42595703 -5.18636719 79.42595703 -4.51171875 77.6328125 C-3.22265625 74.49609375 -3.22265625 74.49609375 -1.22265625 71.49609375 C-0.56265625 71.49609375 0.09734375 71.49609375 0.77734375 71.49609375 C1.06609375 70.73296875 1.35484375 69.96984375 1.65234375 69.18359375 C2.77734375 66.49609375 2.77734375 66.49609375 4.77734375 63.49609375 C5.13508499 60.04000445 5.13508499 60.04000445 5.08984375 56.18359375 C5.11498047 54.24033203 5.11498047 54.24033203 5.140625 52.2578125 C4.54611092 46.10171513 2.11534001 42.68450394 -2.22265625 38.49609375 C-2.22265625 37.83609375 -2.22265625 37.17609375 -2.22265625 36.49609375 C-9.71544776 34.24098174 -18.15395286 34.56535796 -25.2890625 37.6953125 C-33.70269731 41.17974712 -45.5933466 42.3725303 -54.22265625 39.49609375 C-56.05282177 39.29764207 -57.88695539 39.13426478 -59.72265625 38.99609375 C-62.82859467 38.76231344 -65.25486347 38.48535801 -68.22265625 37.49609375 C-68.22265625 36.83609375 -68.22265625 36.17609375 -68.22265625 35.49609375 C-73.50265625 35.16609375 -78.78265625 34.83609375 -84.22265625 34.49609375 C-84.22265625 35.15609375 -84.22265625 35.81609375 -84.22265625 36.49609375 C-85.70765625 36.99109375 -85.70765625 36.99109375 -87.22265625 37.49609375 C-87.88265625 38.48609375 -88.54265625 39.47609375 -89.22265625 40.49609375 C-89.88265625 40.49609375 -90.54265625 40.49609375 -91.22265625 40.49609375 C-91.22265625 41.15609375 -91.22265625 41.81609375 -91.22265625 42.49609375 C-91.88265625 42.49609375 -92.54265625 42.49609375 -93.22265625 42.49609375 C-93.56018392 33.38284662 -92.6049481 25.06039581 -87.22265625 17.49609375 C-84.17359246 14.35058756 -81.28362579 11.93816439 -77.22265625 10.24609375 C-73.9201194 8.31961392 -72.96058263 6.84643536 -70.91015625 3.68359375 C-64.30917542 -6.17482762 -55.4814105 -8.93009959 -44.22265625 -11.50390625 C-28.332513 -14.40709929 -13.19597433 -8.92873483 0 0 Z " fill="#ACACAC" transform="translate(543.22265625,298.50390625)"/>
<path d="M0 0 C0 18.81 0 37.62 0 57 C-2.97 57.99 -5.94 58.98 -9 60 C-11.5222092 63.67957524 -11.27153956 67.6174094 -11.31884766 71.9934082 C-11.33391609 73.01862831 -11.33391609 73.01862831 -11.34928894 74.06455994 C-11.38002905 76.30995897 -11.39713014 78.55523926 -11.4140625 80.80078125 C-11.43278157 82.36306269 -11.45235554 83.92533411 -11.4727478 85.4875946 C-11.52399709 89.58922401 -11.56366121 93.69088616 -11.60089111 97.79266357 C-11.6480301 102.71958292 -11.70959697 107.64634066 -11.76873779 112.57312775 C-11.85686226 120.04868634 -11.92668908 127.52421534 -12 135 C-23.55 135 -35.1 135 -47 135 C-47.15867429 121.94267496 -47.28687302 108.88599899 -47.3626852 95.82792473 C-47.39908672 89.76333428 -47.44839756 83.69944241 -47.52807617 77.63525391 C-47.60460279 71.77371564 -47.64608846 65.91284571 -47.6641407 60.0508461 C-47.67699138 57.82385881 -47.70208463 55.59690463 -47.7401104 53.37020493 C-47.97726984 38.89602296 -47.55629697 27.53659804 -37.55345154 16.23605347 C-28.99755933 7.69835455 -12.42783257 0 0 0 Z " fill="#AAD4F0" transform="translate(438,460)"/>
<path d="M0 0 C2.01822917 0.06510417 4.03645833 0.13020833 6.0546875 0.1953125 C6.5496875 1.6803125 6.5496875 1.6803125 7.0546875 3.1953125 C7.5703125 2.7003125 8.0859375 2.2053125 8.6171875 1.6953125 C11.92189954 -0.33835645 14.23922528 -0.1515477 18.0546875 0.1953125 C19.0446875 0.8553125 20.0346875 1.5153125 21.0546875 2.1953125 C21.0546875 2.8553125 21.0546875 3.5153125 21.0546875 4.1953125 C21.7146875 3.8653125 22.3746875 3.5353125 23.0546875 3.1953125 C29.52527574 2.84237132 29.52527574 2.84237132 33.0546875 5.1953125 C33.0546875 6.1853125 33.0546875 7.1753125 33.0546875 8.1953125 C34.3128125 8.1334375 35.5709375 8.0715625 36.8671875 8.0078125 C39.43174594 8.02596867 40.76932523 8.0437138 43.0546875 9.2578125 C46.08468505 15.12843275 43.26418853 21.47796357 41.41796875 27.328125 C40.0546875 30.1953125 40.0546875 30.1953125 37.61328125 32.6015625 C34.63768006 35.61804981 33.25936568 38.675529 31.8046875 42.5703125 C31.54945313 43.20453125 31.29421875 43.83875 31.03125 44.4921875 C28.02465897 52.11031754 28.02465897 52.11031754 29.1640625 59.890625 C29.70546875 60.69242187 30.246875 61.49421875 30.8046875 62.3203125 C31.60132813 63.53074219 31.60132813 63.53074219 32.4140625 64.765625 C32.95546875 65.56742188 33.496875 66.36921875 34.0546875 67.1953125 C34.47234375 67.99710938 34.89 68.79890625 35.3203125 69.625 C37.03094032 72.16011961 38.26491472 73.08626419 40.70703125 74.8046875 C43.05182814 76.73286478 43.94087031 77.71848817 44.65283203 80.70117188 C44.81529992 83.64494747 44.76478288 86.50107219 44.6171875 89.4453125 C44.60236328 90.45078125 44.58753906 91.45625 44.57226562 92.4921875 C44.37886581 99.87113419 44.37886581 99.87113419 42.0546875 102.1953125 C40.09936523 102.43823242 40.09936523 102.43823242 37.73828125 102.42578125 C36.89201172 102.42384766 36.04574219 102.42191406 35.17382812 102.41992188 C34.28888672 102.40767578 33.40394531 102.39542969 32.4921875 102.3828125 C31.60337891 102.38216797 30.71457031 102.38152344 29.79882812 102.38085938 C23.19489847 102.33552347 23.19489847 102.33552347 22.0546875 101.1953125 C21.71838568 97.26654102 21.7296638 93.32412501 21.6796875 89.3828125 C21.62361328 87.72282227 21.62361328 87.72282227 21.56640625 86.02929688 C21.47709391 77.82744667 21.47709391 77.82744667 24.578125 74.43359375 C25.80402344 73.82064453 25.80402344 73.82064453 27.0546875 73.1953125 C25.50542572 68.86721611 23.31103595 65.06577299 20.8671875 61.1953125 C20.50560547 60.59203125 20.14402344 59.98875 19.77148438 59.3671875 C16.61604351 54.37062021 14.28431031 52.93075736 9.0546875 49.1953125 C8.7246875 82.1953125 8.3946875 115.1953125 8.0546875 149.1953125 C5.4146875 149.1953125 2.7746875 149.1953125 0.0546875 149.1953125 C0.0546875 115.8653125 0.0546875 82.5353125 0.0546875 48.1953125 C-4.2353125 51.1653125 -8.5253125 54.1353125 -12.9453125 57.1953125 C-14.5953125 56.8653125 -16.2453125 56.5353125 -17.9453125 56.1953125 C-19.38320963 53.86177605 -20.415436 51.82504758 -21.4453125 49.3203125 C-21.74518066 48.64718018 -22.04504883 47.97404785 -22.35400391 47.28051758 C-23.73706586 44.15844226 -25.00644575 41.02940685 -26.1875 37.82421875 C-28.03989448 32.4624229 -28.03989448 32.4624229 -32.25390625 29.078125 C-34.52343322 28.56119686 -36.62186594 28.26111818 -38.9453125 28.1953125 C-36.3798531 25.6298531 -34.46844582 25.65485163 -30.9453125 25.1953125 C-30.5740625 23.98875 -30.5740625 23.98875 -30.1953125 22.7578125 C-28.68452603 18.45207107 -26.84342394 14.34167243 -24.9453125 10.1953125 C-21.00463079 11.50887307 -19.55428473 14.03297345 -17.1953125 17.2578125 C-16.30018137 18.45202579 -15.40304438 19.64473821 -14.50390625 20.8359375 C-14.06675293 21.41537109 -13.62959961 21.99480469 -13.17919922 22.59179688 C-10.00327653 26.71911389 -6.45393154 30.52929816 -2.9609375 34.38671875 C-2.31640625 35.10730469 -1.671875 35.82789063 -1.0078125 36.5703125 C-0.12802734 37.54097656 -0.12802734 37.54097656 0.76953125 38.53125 C2.0546875 40.1953125 2.0546875 40.1953125 2.0546875 42.1953125 C6.08852878 40.12388049 7.98325549 38.22915378 10.0546875 34.1953125 C9.2915625 34.0921875 8.5284375 33.9890625 7.7421875 33.8828125 C4.85660938 33.14464135 3.79288933 32.57390447 2.0546875 30.1953125 C2.0546875 29.2053125 2.0546875 28.2153125 2.0546875 27.1953125 C1.0646875 27.6903125 1.0646875 27.6903125 0.0546875 28.1953125 C-3.4453125 28.3828125 -3.4453125 28.3828125 -6.9453125 28.1953125 C-8.9453125 26.1953125 -8.9453125 26.1953125 -9.21875 22.59375 C-9.10207592 18.06393003 -7.99773123 14.09454949 -6.5703125 9.8203125 C-6.23773437 8.75490234 -6.23773437 8.75490234 -5.8984375 7.66796875 C-3.53953633 0.35537513 -3.53953633 0.35537513 0 0 Z " fill="#D6D6D6" transform="translate(582.9453125,446.8046875)"/>
<path d="M0 0 C2.8030396 0.62289769 4.53705693 1.30166215 6.15234375 3.73828125 C7.18119324 5.79986268 8.1170765 7.8720323 9 10 C9.61875 11.485 9.61875 11.485 10.25 13 C10.4975 13.66 10.745 14.32 11 15 C11.66 15 12.32 15 13 15 C13.20496094 15.56589844 13.40992188 16.13179688 13.62109375 16.71484375 C13.89050781 17.44832031 14.15992188 18.18179687 14.4375 18.9375 C14.70433594 19.66839844 14.97117187 20.39929688 15.24609375 21.15234375 C15.85386948 22.98305678 15.85386948 22.98305678 17 24 C23.32317324 24.33909762 29.79980436 24.37782125 36 23 C36.33 22.34 36.66 21.68 37 21 C45.72966996 19.34759819 55.27069836 19.36325594 64 21 C64.33 21.33 64.66 21.66 65 22 C66.39124735 22.18452333 67.78877264 22.32269658 69.1875 22.4375 C72.05312642 22.71685352 74.20658621 23.07472267 76.9375 24.0625 C79.95264528 24.98550366 82.06835007 25.09664886 85.19140625 25.05859375 C86.09189697 25.05013428 86.9923877 25.0416748 87.92016602 25.03295898 C88.60651123 25.02208252 89.29285645 25.01120605 90 25 C90.15540291 29.64246966 90.22906656 34.2770453 90.23193359 38.92211914 C90.24383138 40.4963245 90.27683165 42.07053378 90.33251953 43.64379883 C90.79562235 57.38397204 90.79562235 57.38397204 86.38476562 62.45458984 C83.47866044 65.30733753 80.33434715 67.66907987 77 70 C76.27329102 70.56501221 75.54658203 71.13002441 74.79785156 71.7121582 C70.87664987 74.52100379 66.74111358 75.27888903 62 75 C62 75.66 62 76.32 62 77 C49.47363152 77.5061159 38.2713917 77.32477656 27 71 C25.31002677 69.35697047 23.64783606 67.68528688 22 66 C19.90834377 64.16187785 17.79587709 62.35139204 15.671875 60.55078125 C13.36948858 58.41515646 13.02463958 57.39946522 12.82983398 54.24121094 C12.80219971 53.08395508 12.77456543 51.92669922 12.74609375 50.734375 C12.03832891 30.63768595 12.03832891 30.63768595 3 13 C0.91178852 8.76195768 -0.44859833 4.78504883 0 0 Z " fill="#74C2E9" transform="translate(447,363)"/>
<path d="M0 0 C0.16604736 0.68513672 0.33209473 1.37027344 0.50317383 2.07617188 C1.26785516 5.21871242 2.04011768 8.35934375 2.8125 11.5 C3.07353516 12.57765625 3.33457031 13.6553125 3.60351562 14.765625 C5.06630234 20.68900825 6.71335846 26.34176389 9 32 C14.76145499 31.57886721 18.24541932 29.17678552 22.8125 25.9375 C29.91899727 21 29.91899727 21 31 21 C31.33 31.56 31.66 42.12 32 53 C33.65 53.33 35.3 53.66 37 54 C38.91219585 52.08780415 38.24435298 48.66354496 38.31640625 46.12109375 C38.33718735 45.4344313 38.35796844 44.74776886 38.37937927 44.04029846 C38.44494143 41.83947065 38.50379015 39.63852025 38.5625 37.4375 C38.60567892 35.94855486 38.649293 34.45962227 38.69335938 32.97070312 C38.8006293 29.31393447 38.90187772 25.65702682 39 22 C42.75007958 22.82418782 45.33774753 24.32715178 48.5625 26.4375 C49.51253906 27.05496094 50.46257813 27.67242187 51.44140625 28.30859375 C53.29685015 29.53516964 55.14933599 30.76622399 57 32 C58.32 32 59.64 32 61 32 C61.66 29.69 62.32 27.38 63 25 C64.32 25.99 65.64 26.98 67 28 C67 39.22 67 50.44 67 62 C41.92 62 16.84 62 -9 62 C-9 41.87 -9 21.74 -9 1 C-4 0 -4 0 0 0 Z " fill="#A8D4F0" transform="translate(464,454)"/>
<path d="M0 0 C20.79 0 41.58 0 63 0 C63.25 15.6875 63.25 15.6875 63.29785156 20.61206055 C63.34377441 22.54239136 63.34377441 22.54239136 63.390625 24.51171875 C63.41157227 25.82615967 63.43251953 27.14060059 63.45410156 28.49487305 C64.08104651 32.52038675 65.24730694 34.07244588 68 37 C68.66 37.99 69.32 38.98 70 40 C61.74184786 40.09276991 53.48391423 40.16379982 45.22536945 40.20724869 C41.39037453 40.22810438 37.55573669 40.25638415 33.72094727 40.30175781 C30.01860747 40.34528908 26.31661066 40.36915229 22.61403465 40.37950897 C21.20303131 40.38688742 19.79204628 40.40129614 18.38118935 40.42292023 C16.40185552 40.45204479 14.42217498 40.45363467 12.44262695 40.45410156 C11.31677689 40.46298401 10.19092682 40.47186646 9.03096008 40.48101807 C5.31790439 39.89175037 3.67044939 38.59228686 1 36 C-0.53306974 32.93386053 -0.12141666 29.72919216 -0.09765625 26.3671875 C-0.09664917 25.70082275 -0.09564209 25.03445801 -0.09460449 24.34790039 C-0.08936955 21.85691611 -0.07540829 19.36595634 -0.0625 16.875 C-0.041875 11.30625 -0.02125 5.7375 0 0 Z " fill="#3B6996" transform="translate(467,555)"/>
<path d="M0 0 C0 18.81 0 37.62 0 57 C-0.99 56.505 -0.99 56.505 -2 56 C-2 39.5 -2 23 -2 6 C-15.61030786 10.53676929 -22.68404883 16.06339419 -29.140625 28.75 C-31.69669524 35.44225662 -32.30122539 41.63236253 -32.31884766 48.72070312 C-32.32889328 49.65821411 -32.3389389 50.5957251 -32.34928894 51.56164551 C-32.37997497 54.63484124 -32.39711539 57.70795044 -32.4140625 60.78125 C-32.43278588 62.92216733 -32.45236016 65.06307737 -32.4727478 67.20397949 C-32.52395132 72.81969902 -32.56364002 78.43544243 -32.60089111 84.05126953 C-32.64100474 89.78944757 -32.69206346 95.52752722 -32.7421875 101.265625 C-32.83880727 112.51034743 -32.92325655 123.75512557 -33 135 C-37.62 135 -42.24 135 -47 135 C-47.16279143 121.94283045 -47.28687357 108.88590564 -47.3626852 95.82792473 C-47.39908672 89.76333428 -47.44839756 83.69944241 -47.52807617 77.63525391 C-47.60460279 71.77371564 -47.64608846 65.91284571 -47.6641407 60.0508461 C-47.67699138 57.82385881 -47.70208463 55.59690463 -47.7401104 53.37020493 C-47.97726984 38.89602296 -47.55629697 27.53659804 -37.55345154 16.23605347 C-28.99755933 7.69835455 -12.42783257 0 0 0 Z " fill="#7DBAE1" transform="translate(438,460)"/>
<path d="M0 0 C0 0.33 0 0.66 0 1 C-1.18335938 1.21914063 -2.36671875 1.43828125 -3.5859375 1.6640625 C-18.13157124 4.50884302 -26.12136643 7.79968413 -34.83984375 20.30078125 C-37.37335419 23.46652396 -39.46137981 24.62687541 -43.14453125 26.08984375 C-47.53277737 28.24239395 -50.31127214 32.28801932 -52.09375 36.71875 C-53.1378607 40.49915082 -53.70667207 44.23635412 -54.125 48.125 C-54.20991699 48.89183105 -54.29483398 49.65866211 -54.38232422 50.44873047 C-55.29979536 59.62159584 -55.17297833 68.79370872 -55 78 C-56.485 77.505 -56.485 77.505 -58 77 C-56.12140153 84.44023867 -53.8718029 90.54498351 -49.8125 97 C-45.72216654 103.69293734 -44.86855528 109.22723577 -45 117 C-44.99162805 118.45705432 -44.97972728 119.91409139 -44.96484375 121.37109375 C-44.93434676 125.24844739 -44.95520586 129.12281869 -45 133 C-51.97778225 126.61733777 -54.54583873 118.23461256 -55 109 C-56.19625 109.0825 -57.3925 109.165 -58.625 109.25 C-63.13196864 109.24203716 -65.51288035 107.93235061 -69 105 C-73.05467098 100.50698621 -74.34911791 97.17885268 -74.29296875 91.05859375 C-73.82140773 87.74509166 -72.00924939 85.60020509 -70 83 C-68.48302748 80.62973044 -67.95017833 79.48294875 -68.2421875 76.65234375 C-68.45101563 75.75644531 -68.65984375 74.86054688 -68.875 73.9375 C-71.4928513 59.95851628 -71.89989061 43.61214967 -64.3125 31.125 C-61.26362983 26.95086104 -57.62357272 23.38666203 -53 21 C-51.68 21 -50.36 21 -49 21 C-48.814375 20.34 -48.62875 19.68 -48.4375 19 C-44.13064862 10.01178843 -37.12521164 5.50703456 -28 2 C-18.95192128 -0.80476956 -9.36527719 -0.19762601 0 0 Z " fill="#979695" transform="translate(505,286)"/>
<path d="M0 0 C1.50433594 0.01353516 1.50433594 0.01353516 3.0390625 0.02734375 C3.80992187 0.03894531 4.58078125 0.05054688 5.375 0.0625 C5.87 1.0525 5.87 1.0525 6.375 2.0625 C5.72600235 2.51062042 5.0770047 2.95874084 4.40834045 3.42044067 C1.28738229 7.47571662 1.80855794 11.34987458 1.84155273 16.33544922 C1.83293716 17.37978119 1.82432159 18.42411316 1.81544495 19.50009155 C1.79272261 22.95604159 1.79953649 26.41118473 1.80859375 29.8671875 C1.80336039 32.26848594 1.79708497 34.66978232 1.78981018 37.07107544 C1.77939391 42.10656397 1.78398445 47.14177013 1.79858398 52.17724609 C1.81575955 58.62936312 1.79229697 65.08058863 1.75709438 71.53260612 C1.73512813 76.49290872 1.73656034 81.45299785 1.7448597 86.41333389 C1.74567989 88.79197288 1.7388035 91.17062743 1.72408867 93.54922104 C1.7066613 96.87695732 1.721173 100.20308984 1.74389648 103.53076172 C1.73220428 104.51278564 1.72051208 105.49480957 1.70846558 106.5065918 C1.77199558 111.08130859 1.93453752 114.11317052 4.91444397 117.72073364 C5.72642746 118.49351654 6.53841095 119.26629944 7.375 120.0625 C-0.58847289 120.83663772 -8.45322808 121.20414152 -16.45214844 121.17602539 C-17.5658078 121.17617142 -18.67946716 121.17631744 -19.82687378 121.1764679 C-23.4627282 121.17577809 -27.09852967 121.16802989 -30.734375 121.16015625 C-33.27313204 121.15828875 -35.81188944 121.15686642 -38.35064697 121.15586853 C-44.32138781 121.15245658 -50.292112 121.14459661 -56.26284432 121.13451904 C-63.06831095 121.12328546 -69.87377854 121.11782932 -76.67925215 121.11282361 C-90.66117835 121.10241169 -104.64308815 121.08485773 -118.625 121.0625 C-118.625 120.7325 -118.625 120.4025 -118.625 120.0625 C-82.325 119.7325 -46.025 119.4025 -8.625 119.0625 C-9.945 117.4125 -11.265 115.7625 -12.625 114.0625 C-13.13115788 111.75614071 -13.13115788 111.75614071 -13.1396637 109.3500824 C-13.15238815 108.43184692 -13.16511261 107.51361145 -13.17822266 106.56755066 C-13.17169678 105.57258072 -13.1651709 104.57761078 -13.15844727 103.55249023 C-13.17137062 101.96632401 -13.17137062 101.96632401 -13.18455505 100.34811401 C-13.20724376 96.85552443 -13.20047136 93.36373517 -13.19140625 89.87109375 C-13.19663988 87.44401307 -13.2029154 85.01693443 -13.21018982 82.58985901 C-13.22059896 77.50487695 -13.21602392 72.42017465 -13.20141602 67.33520508 C-13.18421298 60.81230094 -13.20774072 54.29027637 -13.24290562 47.76747036 C-13.26484088 42.756639 -13.26344769 37.74601945 -13.2551403 32.73515511 C-13.25431895 30.32974342 -13.26121722 27.92431646 -13.27591133 25.51894951 C-13.29328821 22.15978366 -13.27887094 18.80221609 -13.25610352 15.44311523 C-13.27364182 13.94762398 -13.27364182 13.94762398 -13.29153442 12.42192078 C-13.19829254 5.67659579 -13.19829254 5.67659579 -10.21055603 2.47621155 C-6.37887774 0.38115432 -4.39049064 -0.05105222 0 0 Z " fill="#D6D8DA" transform="translate(544.625,474.9375)"/>
<path d="M0 0 C2.01822917 0.06510417 4.03645833 0.13020833 6.0546875 0.1953125 C6.3846875 1.1853125 6.7146875 2.1753125 7.0546875 3.1953125 C7.5703125 2.7003125 8.0859375 2.2053125 8.6171875 1.6953125 C11.92189954 -0.33835645 14.23922528 -0.1515477 18.0546875 0.1953125 C19.0446875 0.8553125 20.0346875 1.5153125 21.0546875 2.1953125 C21.0546875 2.8553125 21.0546875 3.5153125 21.0546875 4.1953125 C21.7146875 3.8653125 22.3746875 3.5353125 23.0546875 3.1953125 C29.52527574 2.84237132 29.52527574 2.84237132 33.0546875 5.1953125 C33.0546875 6.1853125 33.0546875 7.1753125 33.0546875 8.1953125 C34.3128125 8.1334375 35.5709375 8.0715625 36.8671875 8.0078125 C39.43174594 8.02596867 40.76932523 8.0437138 43.0546875 9.2578125 C45.66705521 14.31927494 43.88888245 19.24826761 42.3046875 24.3828125 C40.93559491 28.61504713 39.60871277 31.42290557 36.0546875 34.1953125 C32.5546875 33.9453125 32.5546875 33.9453125 29.0546875 33.1953125 C25.2782943 32.8971701 25.2782943 32.8971701 23.0546875 34.1953125 C18.9964239 34.45998186 16.60502173 34.09727726 13.0546875 32.1953125 C12.0646875 32.6903125 12.0646875 32.6903125 11.0546875 33.1953125 C5.705094 33.65059705 5.705094 33.65059705 3.1796875 31.8828125 C2.0546875 30.1953125 2.0546875 30.1953125 2.0546875 27.1953125 C1.3946875 27.5253125 0.7346875 27.8553125 0.0546875 28.1953125 C-3.4453125 28.3828125 -3.4453125 28.3828125 -6.9453125 28.1953125 C-8.9453125 26.1953125 -8.9453125 26.1953125 -9.21875 22.59375 C-9.10207592 18.06393003 -7.99773123 14.09454949 -6.5703125 9.8203125 C-6.34859375 9.11003906 -6.126875 8.39976562 -5.8984375 7.66796875 C-3.53953633 0.35537513 -3.53953633 0.35537513 0 0 Z " fill="#EBAA82" transform="translate(582.9453125,446.8046875)"/>
<path d="M0 0 C2.97 0 5.94 0 9 0 C9 16.5 9 33 9 50 C6.36 50 3.72 50 1 50 C0.67 48.68 0.34 47.36 0 46 C-0.598125 46.66 -1.19625 47.32 -1.8125 48 C-6.47722919 50.9268889 -10.63063721 50.75802769 -16 50 C-20.69084249 47.95308691 -23.25710912 45.14379212 -25.30078125 40.5390625 C-26.99431013 34.38937664 -27.26704462 27.5045915 -25.08203125 21.4609375 C-22.58024043 17.13745433 -19.56354729 14.14755167 -15 12 C-10.96823924 11.30952129 -7.78592312 11.61539933 -4.0625 13.4375 C-2 15 -2 15 -1 16 C-0.67 10.72 -0.34 5.44 0 0 Z " fill="#0A0A0A" transform="translate(566,671)"/>
<path d="M0 0 C0.33 0 0.66 0 1 0 C1 23.43 1 46.86 1 71 C0.67 71 0.34 71 0 71 C0 60.11 0 49.22 0 38 C-20.79 38 -41.58 38 -63 38 C-62.938125 43.48625 -62.87625 48.9725 -62.8125 54.625 C-62.80581299 56.34541504 -62.79912598 58.06583008 -62.79223633 59.83837891 C-62.76576651 61.21781186 -62.73748401 62.59721173 -62.70703125 63.9765625 C-62.71101929 64.67998779 -62.71500732 65.38341309 -62.71911621 66.1081543 C-62.55697511 71.78408746 -60.82315179 74.11033548 -57 78 C-59.43934225 78.13501894 -61.87124104 78.23403897 -64.3125 78.3125 C-65.00279297 78.35439453 -65.69308594 78.39628906 -66.40429688 78.43945312 C-68.42578125 78.48828125 -68.42578125 78.48828125 -72 78 C-75.72207585 73.70546172 -75.43738534 69.25290535 -75.3984375 63.8671875 C-75.40130768 62.99353546 -75.40417786 62.11988342 -75.40713501 61.21975708 C-75.40917095 59.37908273 -75.40367403 57.53838652 -75.39111328 55.69775391 C-75.37501393 52.87744027 -75.39099747 50.05855126 -75.41015625 47.23828125 C-75.40817449 45.4479135 -75.40433221 43.65754664 -75.3984375 41.8671875 C-75.40451019 41.02340546 -75.41058289 40.17962341 -75.4168396 39.31027222 C-75.34739754 33.54968741 -75.34739754 33.54968741 -73.91011047 31.27546692 C-70.99382627 29.32813242 -68.52761963 29.64121665 -65.05004883 29.65942383 C-64.34735367 29.65898575 -63.64465851 29.65854767 -62.92066956 29.65809631 C-60.59917364 29.66018553 -58.27840091 29.68352181 -55.95703125 29.70703125 C-54.34706517 29.71262676 -52.73709398 29.71689707 -51.12712097 29.71989441 C-46.89045093 29.73134682 -42.6540896 29.76081721 -38.4175415 29.79400635 C-34.0941587 29.82469881 -29.77072599 29.83839797 -25.44726562 29.85351562 C-16.96468631 29.88568676 -8.48241713 29.93845774 0 30 C0 20.1 0 10.2 0 0 Z " fill="#295077" transform="translate(530,517)"/>
<path d="M0 0 C0.66 0 1.32 0 2 0 C3.2204631 10.01796793 3.2204631 10.01796793 0.53515625 14.37890625 C-0.81928398 15.83526475 -2.21421484 17.25468038 -3.640625 18.640625 C-7.15826209 22.15826209 -9.91397699 26.18092616 -12.82421875 30.203125 C-18.29402024 37.23432405 -18.29402024 37.23432405 -22.48046875 39.11328125 C-26.34375383 38.93958316 -27.71506716 36.93885479 -30.3125 34.1875 C-31.19550781 33.27355469 -32.07851563 32.35960937 -32.98828125 31.41796875 C-35 29 -35 29 -35 27 C-35.639375 26.731875 -36.27875 26.46375 -36.9375 26.1875 C-39 25 -39 25 -40 22 C-40.66 22 -41.32 22 -42 22 C-43.47265625 20.13671875 -43.47265625 20.13671875 -45.0625 17.6875 C-45.58972656 16.88699219 -46.11695313 16.08648437 -46.66015625 15.26171875 C-48.78537858 11.67424431 -49.0898691 9.35566314 -48.5625 5.3125 C-48.46066406 4.50425781 -48.35882813 3.69601562 -48.25390625 2.86328125 C-48.17011719 2.24839844 -48.08632813 1.63351562 -48 1 C-46.66503388 1.26266695 -45.33211295 1.53572653 -44 1.8125 C-42.88625 2.03873047 -42.88625 2.03873047 -41.75 2.26953125 C-39.45143694 2.88008706 -37.46626393 3.62401083 -35.28125 4.53125 C-30.70487206 6.28878988 -26.36370261 6.54887655 -21.5 6.6875 C-20.67757813 6.72166016 -19.85515625 6.75582031 -19.0078125 6.79101562 C-17.0056545 6.8724988 -15.00285432 6.93794575 -13 7 C-13 6.34 -13 5.68 -13 5 C-12.22914063 4.80664062 -11.45828125 4.61328125 -10.6640625 4.4140625 C-9.66117188 4.15367187 -8.65828125 3.89328125 -7.625 3.625 C-6.62726562 3.36976563 -5.62953125 3.11453125 -4.6015625 2.8515625 C-1.87458985 2.17595681 -1.87458985 2.17595681 0 0 Z " fill="#EDA77C" transform="translate(522,433)"/>
<path d="M0 0 C3.45499514 1.75274284 4.84661241 3.86055885 6.5625 7.3125 C6.90307617 10.54223633 6.90307617 10.54223633 6.85546875 14.14453125 C6.8409668 16.08295898 6.8409668 16.08295898 6.82617188 18.06054688 C6.80110985 19.4153707 6.77571506 20.77018841 6.75 22.125 C6.73494013 23.49933445 6.72125401 24.87368468 6.70898438 26.24804688 C6.67366628 29.60326632 6.62433851 32.95768166 6.5625 36.3125 C3.5925 36.3125 0.6225 36.3125 -2.4375 36.3125 C-2.7675 35.3225 -3.0975 34.3325 -3.4375 33.3125 C-4.05625 33.9725 -4.675 34.6325 -5.3125 35.3125 C-9.71399228 38.12945506 -13.34691261 38.33378425 -18.4375 37.3125 C-22.32378166 35.45688804 -24.77500873 33.18190607 -26.2265625 29.0859375 C-26.92112524 25.01389323 -26.83456184 22.97899667 -24.6875 19.375 C-20.77325557 15.7869426 -18.06079738 14.93950825 -12.875 14.25 C-8.50938045 13.76298905 -8.50938045 13.76298905 -4.4375 12.3125 C-4.4375 10.6625 -4.4375 9.0125 -4.4375 7.3125 C-7.24665474 5.90792263 -9.32560534 6.06354843 -12.4375 6.3125 C-13.05625 6.8075 -13.675 7.3025 -14.3125 7.8125 C-17.60419279 10.13604785 -20.47267868 9.51074107 -24.4375 9.3125 C-24.21331061 5.38918566 -23.47797908 4.35121912 -20.5625 1.5625 C-14.42675639 -2.8552354 -6.86750791 -3.15396659 0 0 Z " fill="#0E0F0F" transform="translate(445.4375,684.6875)"/>
<path d="M0 0 C3.96 0 7.92 0 12 0 C11.67 2.64 11.34 5.28 11 8 C11.99 7.835 12.98 7.67 14 7.5 C18.02732942 6.91525483 21.93474623 6.92867976 26 7 C26 7.99 26 8.98 26 10 C20.92523206 11.26305335 16.27203646 12.27036084 11 12 C11 14.31 11 16.62 11 19 C11.59167969 19.06058594 12.18335938 19.12117188 12.79296875 19.18359375 C16.90978208 19.62012371 20.95544533 20.08671346 25 21 C25 21.99 25 22.98 25 24 C20.83861737 24.08159574 17.0527516 23.98248524 13 23 C13.38864654 26.45136841 13.38864654 26.45136841 15 30 C23.07190037 35.20230276 36.0577174 35.29599903 45.12646484 33.60302734 C47.96779888 32.95048748 50.77847591 32.22402043 53.58154297 31.4230957 C57.16021856 30.40275957 60.27289486 29.77107991 64 30 C64 30.99 64 31.98 64 33 C49.37402305 38.16098926 36.432485 41.04786492 21 37 C21.495 37.495 21.495 37.495 22 38 C22.66 38.763125 23.32 39.52625 24 40.3125 C29.03142275 45.34392275 36.26763651 47.28109868 43 49 C43 49.33 43 49.66 43 50 C34.03945523 50.51284517 27.21086301 49.605411 19 46 C18.13375 45.68804687 17.2675 45.37609375 16.375 45.0546875 C13.91705779 43.96316711 12.77979134 42.97272265 11 41 C9.65399594 39.8032558 8.2994033 38.61611912 6.9375 37.4375 C0.71718986 32.05119793 0.71718986 32.05119793 0.15673828 27.30029297 C-0.1889212 22.22739013 -0.10005685 17.14423126 -0.0625 12.0625 C-0.05798828 10.90169922 -0.05347656 9.74089844 -0.04882812 8.54492188 C-0.0371066 5.6965922 -0.01917323 2.84828926 0 0 Z " fill="#48A9DA" transform="translate(462,389)"/>
<path d="M0 0 C3.3 0 6.6 0 10 0 C12.64 8.25 15.28 16.5 18 25 C20.31918877 18.90549069 20.31918877 18.90549069 22.3515625 12.75390625 C22.56296875 12.06232422 22.774375 11.37074219 22.9921875 10.65820312 C23.42228205 9.23384681 23.85195431 7.80936292 24.28125 6.38476562 C25.89728954 1.10271046 25.89728954 1.10271046 27 0 C30.00003445 -0.14177857 32.99757235 -0.04228771 36 0 C33.838955 8.75500284 30.94149512 17.18878207 27.86645508 25.65429688 C27.05764888 27.88839989 26.26404878 30.12755489 25.47070312 32.3671875 C24.95143883 33.80501936 24.43128805 35.24253145 23.91015625 36.6796875 C23.6777272 37.34120819 23.44529816 38.00272888 23.20582581 38.68429565 C21.45554715 43.4335374 19.3362751 47.41399211 15.078125 50.3046875 C12.5335461 51.15606916 10.42774924 51.19546709 7.75 51.125 C6.41195312 51.09792969 6.41195312 51.09792969 5.046875 51.0703125 C4.37140625 51.04710937 3.6959375 51.02390625 3 51 C3.33 48.69 3.66 46.38 4 44 C5.134375 43.690625 6.26875 43.38125 7.4375 43.0625 C10.78775099 42.37075469 10.78775099 42.37075469 12 41 C12.40410497 35.52281003 11.31736909 31.18376208 9.375 26.1328125 C9.10864746 25.41261932 8.84229492 24.69242615 8.56787109 23.95040894 C7.72251625 21.67115127 6.86180475 19.39808233 6 17.125 C5.14164294 14.82932693 4.28642993 12.53250621 3.43212891 10.23532104 C2.90104442 8.81076242 2.36694479 7.38732362 1.82958984 5.96511841 C0 1.10638244 0 1.10638244 0 0 Z " fill="#0A0A0A" transform="translate(608,684)"/>
<path d="M0 0 C3.61938095 2.64116988 5.98706523 4.97413046 8 9 C8 9.66 8 10.32 8 11 C8.66 11 9.32 11 10 11 C11.4453125 12.46875 11.4453125 12.46875 13.125 14.5 C16.35098401 18.33043154 19.80959475 21.75492194 23.49609375 25.140625 C25 27 25 27 25 31 C24.47792969 31.27972656 23.95585937 31.55945313 23.41796875 31.84765625 C17.90558972 34.85002031 12.72464997 38.14563935 7.578125 41.7421875 C4.52678057 43.23087372 3.1771174 43.01713471 0 42 C-2.48622642 35.13642814 -4.57028073 28.210282 -6.3125 21.125 C-6.49586914 20.412229 -6.67923828 19.69945801 -6.86816406 18.96508789 C-7.8923063 14.6579335 -8.29122852 11.26349038 -7 7 C-5.37109375 4.8828125 -5.37109375 4.8828125 -3.4375 3.125 C-2.79683594 2.52945312 -2.15617187 1.93390625 -1.49609375 1.3203125 C-1.00238281 0.88460938 -0.50867188 0.44890625 0 0 Z " fill="#6BB8E2" transform="translate(472,444)"/>
<path d="M0 0 C3.37134399 2.05921942 6.21890316 4.43780633 8 8 C8.08573394 10.25120742 8.10712188 12.50499303 8.09765625 14.7578125 C8.0962413 15.42086395 8.09482635 16.08391541 8.09336853 16.76705933 C8.08776754 18.88641863 8.075215 21.00567259 8.0625 23.125 C8.05748512 24.56119639 8.05292219 25.99739444 8.04882812 27.43359375 C8.03779782 30.95576345 8.02053259 34.47787145 8 38 C5.03 38 2.06 38 -1 38 C-1.01981934 37.19256348 -1.03963867 36.38512695 -1.06005859 35.55322266 C-1.15505899 31.91014125 -1.26483912 28.26765314 -1.375 24.625 C-1.4059375 23.35398437 -1.436875 22.08296875 -1.46875 20.7734375 C-1.50742187 19.56171875 -1.54609375 18.35 -1.5859375 17.1015625 C-1.6173584 15.98088379 -1.6487793 14.86020508 -1.68115234 13.70556641 C-1.73411203 10.85289588 -1.73411203 10.85289588 -4 9 C-5.91006306 8.6823754 -5.91006306 8.6823754 -8 8.75 C-8.70125 8.74484375 -9.4025 8.7396875 -10.125 8.734375 C-12.2435669 8.84294485 -12.2435669 8.84294485 -14 11 C-14.37239227 13.81402683 -14.37239227 13.81402683 -14.4140625 17.1015625 C-14.47207031 18.91914062 -14.47207031 18.91914062 -14.53125 20.7734375 C-14.5621875 22.04445313 -14.593125 23.31546875 -14.625 24.625 C-14.68300781 26.543125 -14.68300781 26.543125 -14.7421875 28.5 C-14.83671049 31.66652017 -14.92226357 34.8330304 -15 38 C-17.97 38 -20.94 38 -24 38 C-24 25.79 -24 13.58 -24 1 C-21.36 1 -18.72 1 -16 1 C-15.67 1.99 -15.34 2.98 -15 4 C-14.195625 3.34 -13.39125 2.68 -12.5625 2 C-8.53875064 -0.63821303 -4.67129874 -1.10103402 0 0 Z " fill="#0D0D0D" transform="translate(525,683)"/>
<path d="M0 0 C5.08472359 -0.70134118 5.08472359 -0.70134118 8 0 C12.06822788 3.79932582 14.87994556 8.19918333 15.25 13.75 C15.18334393 17.83823904 14.2823059 20.53719106 12 24 C7.93053813 27.85527967 4.32407453 29.91229907 -1.3125 30.125 C-2.199375 30.08375 -3.08625 30.0425 -4 30 C-3.87625 31.22589844 -3.87625 31.22589844 -3.75 32.4765625 C-4.07955478 37.12122516 -5.82895737 40.31896428 -8 44.375 C-8.3815625 45.11105469 -8.763125 45.84710938 -9.15625 46.60546875 C-10.09331735 48.4093234 -11.04519207 50.20547259 -12 52 C-12.66 52 -13.32 52 -14 52 C-14.08690253 47.56262288 -14.14035926 43.12546366 -14.1875 38.6875 C-14.21263672 37.42486328 -14.23777344 36.16222656 -14.26367188 34.86132812 C-14.27333984 33.65283203 -14.28300781 32.44433594 -14.29296875 31.19921875 C-14.31653442 29.52605591 -14.31653442 29.52605591 -14.34057617 27.8190918 C-13.95267065 24.60823512 -13.37721188 24.02894606 -11 22 C-10.33363431 20.13417608 -9.66973409 18.26740147 -9.0234375 16.39453125 C-7.33451525 12.44296888 -4.90560585 8.98116993 -2.5234375 5.41796875 C-0.86967212 3.00594967 -0.86967212 3.00594967 0 0 Z " fill="#EBA67D" transform="translate(552,365)"/>
<path d="M0 0 C2.97 0 5.94 0 9 0 C9.01458252 0.80219971 9.02916504 1.60439941 9.04418945 2.4309082 C9.11856719 6.05859699 9.21526243 9.68535504 9.3125 13.3125 C9.33505859 14.57513672 9.35761719 15.83777344 9.38085938 17.13867188 C9.41630859 18.34716797 9.45175781 19.55566406 9.48828125 20.80078125 C9.51446533 21.91622314 9.54064941 23.03166504 9.56762695 24.1809082 C9.78707415 26.98887295 9.78707415 26.98887295 11.31323242 28.89135742 C13.15118648 30.3264507 13.15118648 30.3264507 16.5 29.9375 C19.9616531 29.32598358 19.9616531 29.32598358 21.68676758 27.29394531 C23.29380423 24.48678481 23.42598021 22.5831441 23.51171875 19.359375 C23.54716797 18.28945313 23.58261719 17.21953125 23.61914062 16.1171875 C23.64169922 15.00601563 23.66425781 13.89484375 23.6875 12.75 C23.72166016 11.62335937 23.75582031 10.49671875 23.79101562 9.3359375 C23.87343014 6.55739099 23.94260298 3.77915748 24 1 C26.64 1 29.28 1 32 1 C32 13.21 32 25.42 32 38 C29.36 38 26.72 38 24 38 C23.67 36.68 23.34 35.36 23 34 C22.401875 34.66 21.80375 35.32 21.1875 36 C16.55224057 38.90839807 12.33954251 38.80293872 7 38 C3.33044581 35.90311189 1.51382334 33.89695455 0 30 C-0.22705078 26.79199219 -0.22705078 26.79199219 -0.1953125 23.046875 C-0.1924826 22.38665344 -0.18965271 21.72643188 -0.18673706 21.04620361 C-0.17558415 18.94728103 -0.15048946 16.84879258 -0.125 14.75 C-0.11496384 13.32292285 -0.1058391 11.89583898 -0.09765625 10.46875 C-0.07566111 6.97902672 -0.04116536 3.48955577 0 0 Z " fill="#080909" transform="translate(460,683)"/>
<path d="M0 0 C0.3403125 1.7325 0.3403125 1.7325 0.6875 3.5 C2.11329498 9.18323873 5.24715633 13.55191786 8.625 18.26953125 C13.24257838 25.14039908 13.97340919 30.81889532 14 39 C14.00692871 39.70688965 14.01385742 40.4137793 14.02099609 41.14208984 C14.0662253 45.76250464 14.05337936 50.37972014 14 55 C7.02221775 48.61733777 4.45416127 40.23461256 4 31 C2.205625 31.12375 2.205625 31.12375 0.375 31.25 C-4.13196864 31.24203716 -6.51288035 29.93235061 -10 27 C-14.05254531 22.50934169 -15.35643283 19.17806559 -15.2890625 13.05859375 C-14.81896373 9.71072816 -13.06660607 7.59801906 -11 5 C-10.484375 4.236875 -9.96875 3.47375 -9.4375 2.6875 C-6.81143326 -0.395274 -3.77579897 -0.10204862 0 0 Z " fill="#DA8B5F" transform="translate(446,364)"/>
<path d="M0 0 C2.97 0 5.94 0 9 0 C9 13.86 9 27.72 9 42 C16.59 42 24.18 42 32 42 C32 44.64 32 47.28 32 50 C21.44 50 10.88 50 0 50 C0 33.5 0 17 0 0 Z " fill="#0C0D0D" transform="translate(383,671)"/>
<path d="M0 0 C3.19922891 2.48360209 5.51494041 4.35895046 6.55810547 8.37280273 C6.74030321 11.31392209 6.68015157 14.14015038 6.50634766 17.08129883 C6.48701172 18.08225586 6.46767578 19.08321289 6.44775391 20.11450195 C6.22054626 27.42960022 6.22054626 27.42960022 3.88134766 29.76879883 C1.92602539 30.01171875 1.92602539 30.01171875 -0.43505859 29.99926758 C-1.28132812 29.99733398 -2.12759766 29.99540039 -2.99951172 29.9934082 C-4.32692383 29.97503906 -4.32692383 29.97503906 -5.68115234 29.95629883 C-6.56996094 29.9556543 -7.45876953 29.95500977 -8.37451172 29.9543457 C-14.97844137 29.9090098 -14.97844137 29.9090098 -16.11865234 28.76879883 C-18.61200169 8.56707867 -18.61200169 8.56707867 -14.02880859 1.58520508 C-8.94237553 -2.00741504 -5.51901026 -3.20723309 0 0 Z " fill="#EA5754" transform="translate(621.11865234375,519.231201171875)"/>
<path d="M0 0 C2.05078125 0.29296875 4.1015625 0.5859375 6.15234375 0.87890625 C7.06693359 0.93884766 7.06693359 0.93884766 8 1 C8.33 0.67 8.66 0.34 9 0 C14.23757909 0.14334427 19.10657161 1.11791216 24 3 C23.56856647 4.37691552 23.12948836 5.75143619 22.6875 7.125 C22.44386719 7.89070313 22.20023438 8.65640625 21.94921875 9.4453125 C21.63597656 10.28835938 21.32273437 11.13140625 21 12 C20.62359375 13.03511719 20.2471875 14.07023437 19.859375 15.13671875 C17.41643846 18.89863573 14.7047014 19.61124249 10.5625 20.6875 C4.28845811 22.3704315 4.28845811 22.3704315 -1 26 C-1.60208273 28.07516037 -1.60208273 28.07516037 -1.51898193 30.42289734 C-1.53289474 31.32733582 -1.54680756 32.23177429 -1.56114197 33.16362 C-1.55359642 34.64823479 -1.55359642 34.64823479 -1.54589844 36.1628418 C-1.55623611 37.20691193 -1.56657379 38.25098206 -1.57722473 39.32669067 C-1.60676793 42.78435532 -1.60815437 46.24143753 -1.609375 49.69921875 C-1.62434881 52.09390894 -1.64107426 54.48858877 -1.65948486 56.883255 C-1.70325994 63.19121766 -1.72318009 69.499041 -1.73822021 75.80712891 C-1.75775463 82.24194614 -1.79972872 88.6766121 -1.83984375 95.11132812 C-1.91525597 107.74083427 -1.96624251 120.37031737 -2 133 C-2.33 133 -2.66 133 -3 133 C-3.15362769 119.60507093 -3.30180953 106.2100939 -3.4429636 92.81502724 C-3.50867389 86.5957267 -3.57628766 80.3764588 -3.64819336 74.15722656 C-3.71746675 68.15969312 -3.78181621 62.16212552 -3.84269524 56.16450119 C-3.86684308 53.8718612 -3.89279047 51.57923946 -3.92053413 49.28664017 C-3.95897448 46.08516547 -3.99111969 42.88368668 -4.02172852 39.68212891 C-4.03467453 38.72619339 -4.04762054 37.77025787 -4.06095886 36.78535461 C-4.06799835 35.91594742 -4.07503784 35.04654022 -4.08229065 34.15078735 C-4.09058679 33.39307352 -4.09888292 32.63535969 -4.10743046 31.85468483 C-4 30 -4 30 -3 28 C-3.99 27.67 -4.98 27.34 -6 27 C-5.43755107 20.54153469 -4.26271535 14.64936738 -2.4375 8.4375 C-2.20353516 7.61958984 -1.96957031 6.80167969 -1.72851562 5.95898438 C-1.15880046 3.97079473 -0.58033086 1.98511701 0 0 Z " fill="#ACCFE7" transform="translate(534,454)"/>
<path d="M0 0 C2.10409639 -0.02701408 4.20829178 -0.04640223 6.3125 -0.0625 C7.48425781 -0.07410156 8.65601563 -0.08570313 9.86328125 -0.09765625 C13 0 13 0 16 1 C16 1.66 16 2.32 16 3 C16.97582031 3.06058594 17.95164062 3.12117188 18.95703125 3.18359375 C20.86548828 3.30927734 20.86548828 3.30927734 22.8125 3.4375 C24.07707031 3.51871094 25.34164062 3.59992188 26.64453125 3.68359375 C30 4 30 4 33 5 C42.6086502 5.53728473 51.91507759 5.27802729 60.8125 1.375 C66.25286027 -0.81671978 72.24053735 -0.58661194 78 0 C80.390625 1.01953125 80.390625 1.01953125 82 2 C82 2.66 82 3.32 82 4 C82.99 4.33 83.98 4.66 85 5 C84.67 5.66 84.34 6.32 84 7 C77.125 4.125 77.125 4.125 76 3 C74.65252916 2.76924918 73.29622435 2.58846937 71.9375 2.4375 C70.638125 2.293125 69.33875 2.14875 68 2 C68 2.66 68 3.32 68 4 C67.07316406 4.20496094 66.14632812 4.40992188 65.19140625 4.62109375 C63.99386719 4.89050781 62.79632812 5.15992188 61.5625 5.4375 C60.36753906 5.70433594 59.17257812 5.97117187 57.94140625 6.24609375 C55.1295314 6.70066748 55.1295314 6.70066748 54 8 C49.67370173 8.28462489 45.3345238 8.23195828 41 8.25 C39.79214844 8.270625 38.58429688 8.29125 37.33984375 8.3125 C31.05461476 8.33985682 25.69126367 8.07137285 19.82446289 5.71459961 C17.27835405 4.7173481 14.70140587 4.34633409 12 4 C12 3.34 12 2.68 12 2 C9.87249844 2.22773256 7.74791944 2.48290818 5.625 2.75 C4.44164062 2.88921875 3.25828125 3.0284375 2.0390625 3.171875 C-1.0802192 3.6644023 -1.0802192 3.6644023 -2.28125 5.921875 C-2.5184375 6.60765625 -2.755625 7.2934375 -3 8 C-3.70125 8.825 -4.4025 9.65 -5.125 10.5 C-8.36914103 16.55572992 -7.48471699 22.93012573 -6.4375 29.5625 C-4.27356419 34.73712911 -1.41517186 39.54577821 2 44 C2.66 44 3.32 44 4 44 C4.33 46.64 4.66 49.28 5 52 C15.89988169 51.72207407 15.89988169 51.72207407 26.5 49.4375 C36.47944831 46.3911421 47.06541789 47.32324818 56.9609375 50.19921875 C62.54267489 51.66998503 68.28069156 52.28085619 74 53 C74 52.34 74 51.68 74 51 C74.66 51 75.32 51 76 51 C76.0928125 49.7625 76.0928125 49.7625 76.1875 48.5 C77.23296217 43.99647063 79.40457215 40.77342647 82 37 C82 40.69149093 80.90650193 43.19075145 79.5625 46.625 C79.11003906 47.79289062 78.65757812 48.96078125 78.19140625 50.1640625 C77 53 77 53 76 54 C68.41497037 54.55104916 60.53090951 53.92006587 53 53 C52.67 52.67 52.34 52.34 52 52 C46.17847759 50.88258026 40.47470686 50.88216617 34.5625 50.9375 C33.64017578 50.94201172 32.71785156 50.94652344 31.76757812 50.95117188 C29.51164952 50.96286062 27.25586033 50.97924545 25 51 C24.67 51.99 24.34 52.98 24 54 C17.77594992 55.13164547 11.2837813 55.97585573 5 55 C2.25 52.25 2.25 52.25 1 49 C1 47.68 1 46.36 1 45 C0.34 45 -0.32 45 -1 45 C-2.40234375 43.0234375 -2.40234375 43.0234375 -3.9375 40.375 C-4.44152344 39.51648438 -4.94554687 38.65796875 -5.46484375 37.7734375 C-5.97144531 36.85820312 -6.47804688 35.94296875 -7 35 C-7.55300781 34.08863281 -8.10601562 33.17726563 -8.67578125 32.23828125 C-10.41784666 27.97818619 -10.36807073 24.36191271 -10.25 19.8125 C-10.24226563 18.60303711 -10.24226563 18.60303711 -10.234375 17.36914062 C-10.18859344 13.92693936 -10.09897142 11.29691425 -9 8 C-8.34 8 -7.68 8 -7 8 C-7 7.34 -7 6.68 -7 6 C-5.1875 3.875 -5.1875 3.875 -3 2 C-2.01 2 -1.02 2 0 2 C0 1.34 0 0.68 0 0 Z " fill="#C5A08B" transform="translate(459,333)"/>
<path d="M0 0 C2.64 0 5.28 0 8 0 C8 19.8 8 39.6 8 60 C5.03 60 2.06 60 -1 60 C-1.02312821 52.32463373 -1.04091753 44.64927104 -1.05181217 36.97387791 C-1.05703995 33.41022578 -1.06413569 29.84659743 -1.07543945 26.28295898 C-1.08834176 22.18993903 -1.09322906 18.0969442 -1.09765625 14.00390625 C-1.10281754 12.71851456 -1.10797882 11.43312286 -1.11329651 10.10877991 C-1.11337204 8.92763107 -1.11344757 7.74648224 -1.11352539 6.52954102 C-1.115746 5.48363297 -1.11796661 4.43772491 -1.12025452 3.36012268 C-1 1 -1 1 0 0 Z " fill="#274F76" transform="translate(439,456)"/>
<path d="M0 0 C1.051875 0.103125 2.10375 0.20625 3.1875 0.3125 C3.1875 2.9525 3.1875 5.5925 3.1875 8.3125 C2.24777344 8.49425781 2.24777344 8.49425781 1.2890625 8.6796875 C0.47179687 8.84726562 -0.34546875 9.01484375 -1.1875 9.1875 C-2.40566406 9.43113281 -2.40566406 9.43113281 -3.6484375 9.6796875 C-5.99923923 10.17908932 -5.99923923 10.17908932 -7.8125 12.3125 C-8.18457354 15.02865864 -8.18457354 15.02865864 -8.2265625 18.1953125 C-8.28457031 19.94521484 -8.28457031 19.94521484 -8.34375 21.73046875 C-8.3746875 22.95378906 -8.405625 24.17710937 -8.4375 25.4375 C-8.49550781 27.28408203 -8.49550781 27.28408203 -8.5546875 29.16796875 C-8.6491999 32.21599376 -8.73475494 35.26400862 -8.8125 38.3125 C-11.7825 38.3125 -14.7525 38.3125 -17.8125 38.3125 C-17.8125 26.1025 -17.8125 13.8925 -17.8125 1.3125 C-15.1725 1.3125 -12.5325 1.3125 -9.8125 1.3125 C-9.4825 2.6325 -9.1525 3.9525 -8.8125 5.3125 C-8.131875 4.4875 -7.45125 3.6625 -6.75 2.8125 C-3.8125 0.3125 -3.8125 0.3125 0 0 Z " fill="#0A0A0B" transform="translate(601.8125,682.6875)"/>
<path d="M0 0 C-0.33773438 0.64066406 -0.67546875 1.28132813 -1.0234375 1.94140625 C-1.46945312 2.80636719 -1.91546875 3.67132813 -2.375 4.5625 C-2.81585938 5.40941406 -3.25671875 6.25632812 -3.7109375 7.12890625 C-7.19154172 14.8811611 -7.40429915 22.00948614 -7.625 30.4375 C-7.68300781 32.25024414 -7.68300781 32.25024414 -7.7421875 34.09960938 C-7.83599458 37.06625817 -7.92169246 40.03290836 -8 43 C-10.66301472 40.42503431 -12.61482024 37.7471941 -14.625 34.625 C-15.23601562 33.68914062 -15.84703125 32.75328125 -16.4765625 31.7890625 C-19.77960333 25.74195698 -19.6593134 18.73964807 -19 12 C-16.81179794 7.54255137 -13.68852546 4.31021516 -10 1 C-6.52674819 -0.1577506 -3.63932552 -0.06866652 0 0 Z " fill="#DB8B5F" transform="translate(470,335)"/>
<path d="M0 0 C2.79108796 2.65398189 3.88872757 4.33891088 4.53125 8.15625 C4.5209375 9.2596875 4.510625 10.363125 4.5 11.5 C4.5103125 12.6034375 4.520625 13.706875 4.53125 14.84375 C3.88927936 18.65781084 2.76739651 20.33021889 0 23 C-3.34377185 23.58383318 -4.87595605 23.84132669 -8 23 C-11.56472525 20.25219096 -12.73314165 18.75510684 -13.40625 14.328125 C-13.57257136 9.19988313 -13.50443946 5.04358399 -10 1 C-6.86599115 -0.56700442 -3.36844905 -0.85164561 0 0 Z " fill="#F8F8F8" transform="translate(562,691)"/>
<path d="M0 0 C0.66 0.33 1.32 0.66 2 1 C-5.13502451 7.46678959 -13.12062452 9.80272103 -22.43359375 11.69921875 C-26.79034636 12.60197635 -26.79034636 12.60197635 -31 14 C-32.92282004 16.99634696 -32.92282004 16.99634696 -33 20 C-38.53912938 17.9484706 -42.53203462 12.19571658 -45 7 C-45.1875 3.6875 -45.1875 3.6875 -45 1 C-41.08676921 1.41191903 -37.62553106 1.79695621 -33.87109375 3.015625 C-29.04693174 4.24235439 -24.58129461 4.36791958 -19.625 4.375 C-18.73039062 4.39949219 -17.83578125 4.42398437 -16.9140625 4.44921875 C-11.0887048 4.47462002 -6.95014245 3.49776951 -1.79052734 0.76416016 C-1.19965332 0.5119873 -0.6087793 0.25981445 0 0 Z " fill="#DB8E64" transform="translate(520,436)"/>
<path d="M0 0 C0.66 0 1.32 0 2 0 C3.2204631 10.01796793 3.2204631 10.01796793 0.53515625 14.37890625 C-0.81928398 15.83526475 -2.21421484 17.25468038 -3.640625 18.640625 C-7.15826209 22.15826209 -9.91397699 26.18092616 -12.82421875 30.203125 C-18.29402024 37.23432405 -18.29402024 37.23432405 -22.48046875 39.11328125 C-26.34375383 38.93958316 -27.71506716 36.93885479 -30.3125 34.1875 C-31.19550781 33.27355469 -32.07851563 32.35960937 -32.98828125 31.41796875 C-35 29 -35 29 -35 27 C-35.639375 26.731875 -36.27875 26.46375 -36.9375 26.1875 C-39 25 -39 25 -40 22 C-40.66 22 -41.32 22 -42 22 C-43.47265625 20.13671875 -43.47265625 20.13671875 -45.0625 17.6875 C-45.58972656 16.88699219 -46.11695313 16.08648437 -46.66015625 15.26171875 C-48.78537858 11.67424431 -49.0898691 9.35566314 -48.5625 5.3125 C-48.46066406 4.50425781 -48.35882813 3.69601562 -48.25390625 2.86328125 C-48.17011719 2.24839844 -48.08632813 1.63351562 -48 1 C-46.66503388 1.26266695 -45.33211295 1.53572653 -44 1.8125 C-42.88625 2.03873047 -42.88625 2.03873047 -41.75 2.26953125 C-39.45143694 2.88008706 -37.46626393 3.62401083 -35.28125 4.53125 C-30.70487206 6.28878988 -26.36370261 6.54887655 -21.5 6.6875 C-20.67757813 6.72166016 -19.85515625 6.75582031 -19.0078125 6.79101562 C-17.0056545 6.8724988 -15.00285432 6.93794575 -13 7 C-13 6.34 -13 5.68 -13 5 C-12.22914063 4.80664062 -11.45828125 4.61328125 -10.6640625 4.4140625 C-9.66117188 4.15367187 -8.65828125 3.89328125 -7.625 3.625 C-6.62726562 3.36976563 -5.62953125 3.11453125 -4.6015625 2.8515625 C-1.87458985 2.17595681 -1.87458985 2.17595681 0 0 Z M-5.9765625 4.97265625 C-11.18982005 7.33331766 -15.71521917 7.57807715 -21.375 7.4375 C-22.29531006 7.4271875 -23.21562012 7.416875 -24.16381836 7.40625 C-30.03214389 7.26515705 -35.37251328 6.63142386 -40.94140625 4.65625 C-43.27506216 3.79751602 -43.27506216 3.79751602 -47 4 C-47.44761766 9.15139648 -46.44088164 11.49733865 -43.3125 15.5625 C-42.57902344 16.51640625 -41.84554688 17.4703125 -41.08984375 18.453125 C-38.86840406 21.16037487 -36.57617842 23.62720408 -34 26 C-32.93653911 27.10324123 -31.87407241 28.20744149 -30.8125 29.3125 C-28.4073517 32.23028592 -28.4073517 32.23028592 -26 32 C-25.67 32.99 -25.34 33.98 -25 35 C-23.68 35 -22.36 35 -21 35 C-20.7525 34.195625 -20.505 33.39125 -20.25 32.5625 C-19.8375 31.716875 -19.425 30.87125 -19 30 C-18.36900391 29.84893799 -17.73800781 29.69787598 -17.08789062 29.54223633 C-14.45221236 28.85773663 -13.87594478 27.97154633 -12.34375 25.76171875 C-11.87839844 25.10623047 -11.41304688 24.45074219 -10.93359375 23.77539062 C-10.46050781 23.08638672 -9.98742187 22.39738281 -9.5 21.6875 C-8.55538649 20.33492671 -7.6075426 18.98460286 -6.65625 17.63671875 C-6.20733398 16.99943848 -5.75841797 16.3621582 -5.29589844 15.70556641 C-4 14 -4 14 -1.671875 11.75390625 C0.40532939 9.94955478 0.40532939 9.94955478 0.25 6.25 C0.1675 5.1775 0.085 4.105 0 3 C-2.49822885 3 -3.75487865 3.83690197 -5.9765625 4.97265625 Z " fill="#90ADBD" transform="translate(522,433)"/>
<path d="M0 0 C2.8030396 0.62289769 4.53705693 1.30166215 6.15234375 3.73828125 C7.18119324 5.79986268 8.1170765 7.8720323 9 10 C9.61875 11.485 9.61875 11.485 10.25 13 C10.4975 13.66 10.745 14.32 11 15 C11.66 15 12.32 15 13 15 C13.20496094 15.56589844 13.40992188 16.13179688 13.62109375 16.71484375 C13.89050781 17.44832031 14.15992188 18.18179687 14.4375 18.9375 C14.70433594 19.66839844 14.97117187 20.39929688 15.24609375 21.15234375 C15.85386948 22.98305678 15.85386948 22.98305678 17 24 C18.68183948 24.23287008 20.3712416 24.41264166 22.0625 24.5625 C22.98160156 24.64628906 23.90070313 24.73007812 24.84765625 24.81640625 C25.91306641 24.90728516 25.91306641 24.90728516 27 25 C23.33134759 27.44576827 21.32799657 27.23607254 17 27 C16.34 26.67 15.68 26.34 15 26 C15.13980455 30.02106649 15.28792319 34.0417861 15.4375 38.0625 C15.47681641 39.19623047 15.51613281 40.32996094 15.55664062 41.49804688 C15.36639626 51.23690913 15.36639626 51.23690913 18.453125 60.109375 C19.34257812 60.92148437 19.34257812 60.92148437 20.25 61.75 C21.18779297 62.61431641 21.18779297 62.61431641 22.14453125 63.49609375 C24.30080108 65.24380719 26.59781262 66.61692242 29 68 C29 68.66 29 69.32 29 70 C30.11375 70.185625 30.11375 70.185625 31.25 70.375 C33.80141485 70.95486701 35.7267573 71.73708739 38 73 C35.36465495 74.31767252 34.45417473 73.75847597 31.6875 72.875 C27.36518777 71.34704886 25.06839748 69.46178177 22 66 C19.91469005 64.15392255 17.79622493 62.35168692 15.671875 60.55078125 C13.36948858 58.41515646 13.02463958 57.39946522 12.82983398 54.24121094 C12.80219971 53.08395508 12.77456543 51.92669922 12.74609375 50.734375 C12.03832891 30.63768595 12.03832891 30.63768595 3 13 C0.91178852 8.76195768 -0.44859833 4.78504883 0 0 Z " fill="#73A1B7" transform="translate(447,363)"/>
<path d="M0 0 C1.32 0 2.64 0 4 0 C4.86019628 5.59127579 2.70565557 8.28694155 -0.40625 12.6171875 C-2.43097554 15.64435069 -3.78589213 18.78333701 -5.140625 22.15234375 C-6 24 -6 24 -8 26 C-8.22901406 28.98128309 -8.22901406 28.98128309 -8.08984375 32.46875 C-8.05987305 34.40814453 -8.05987305 34.40814453 -8.02929688 36.38671875 C-7.98573647 38.44759348 -7.93728581 40.50821301 -7.88354492 42.56884766 C-7.83537184 44.55604654 -7.80607739 46.54367499 -7.77734375 48.53125 C-7.74890381 49.72298828 -7.72046387 50.91472656 -7.69116211 52.14257812 C-7.79307861 53.08552734 -7.89499512 54.02847656 -8 55 C-8.99 55.66 -9.98 56.32 -11 57 C-11 46.44 -11 35.88 -11 25 C-13.97 25 -16.94 25 -20 25 C-23.5625 24 -23.5625 24 -26 23 C-22.84493858 22.06380187 -20.03413498 21.8942877 -16.75 21.9375 C-15.85796875 21.94652344 -14.9659375 21.95554687 -14.046875 21.96484375 C-13.37140625 21.97644531 -12.6959375 21.98804688 -12 22 C-11.66226563 21.09636719 -11.32453125 20.19273437 -10.9765625 19.26171875 C-10.53054688 18.08222656 -10.08453125 16.90273438 -9.625 15.6875 C-9.18414063 14.51574219 -8.74328125 13.34398437 -8.2890625 12.13671875 C-7 9 -7 9 -5 6 C-4.34 6 -3.68 6 -3 6 C-2.690625 5.195625 -2.38125 4.39125 -2.0625 3.5625 C-1 1 -1 1 0 0 Z " fill="#98B7C4" transform="translate(547,364)"/>
<path d="M0 0 C5.23757909 0.14334427 10.10657161 1.11791216 15 3 C11.47998116 14.23410268 11.47998116 14.23410268 9 18 C5.3631995 19.70233215 3.04241402 20 -1 20 C-1.02888514 16.85418577 -1.04675923 13.70840531 -1.0625 10.5625 C-1.07087891 9.66466797 -1.07925781 8.76683594 -1.08789062 7.84179688 C-1.09111328 6.98779297 -1.09433594 6.13378906 -1.09765625 5.25390625 C-1.10551147 4.06776733 -1.10551147 4.06776733 -1.11352539 2.85766602 C-1 1 -1 1 0 0 Z " fill="#446E98" transform="translate(543,454)"/>
<path d="M0 0 C0.66 0 1.32 0 2 0 C1.7884537 0.53027015 1.57690741 1.06054029 1.35895061 1.60687923 C-0.86728099 7.62731472 -1.44241948 12.90823098 -1.43237305 19.29321289 C-1.44766052 20.77285019 -1.44766052 20.77285019 -1.46325684 22.28237915 C-1.49322574 25.5125305 -1.50262819 28.74238452 -1.51171875 31.97265625 C-1.52857735 34.22424798 -1.54672918 36.47583036 -1.56611633 38.72740173 C-1.61349391 44.6308195 -1.64338251 50.53419936 -1.66955566 56.43774414 C-1.69942298 62.47094199 -1.7459321 68.50400944 -1.79101562 74.53710938 C-1.87690949 86.35800453 -1.94431665 98.17892662 -2 110 C-2.66 110 -3.32 110 -4 110 C-4.06961864 97.24747475 -4.1228716 84.49499499 -4.15543652 71.74231815 C-4.17106881 65.82024976 -4.19226276 59.89831174 -4.22631836 53.97631836 C-4.25899842 48.25750389 -4.27687133 42.53881454 -4.28463173 36.81991386 C-4.2901597 34.64191151 -4.30095442 32.46391573 -4.31719017 30.28596687 C-4.33907913 27.22703566 -4.34196211 24.16861652 -4.34057617 21.10961914 C-4.35675491 19.76957069 -4.35675491 19.76957069 -4.3732605 18.40245056 C-4.3407245 11.73292874 -2.98994918 5.97989837 0 0 Z " fill="#D4EDF8" transform="translate(393,484)"/>
<path d="M0 0 C0.55816406 0.47953125 1.11632812 0.9590625 1.69140625 1.453125 C1.36140625 3.103125 1.03140625 4.753125 0.69140625 6.453125 C-0.29859375 6.288125 -1.28859375 6.123125 -2.30859375 5.953125 C-8.77717641 5.04022019 -14.88427561 5.38240531 -21.30859375 6.453125 C-21.63859375 4.803125 -21.96859375 3.153125 -22.30859375 1.453125 C-15.81865377 -2.8116927 -6.87938695 -4.60953846 0 0 Z " fill="#A4948A" transform="translate(486.30859375,358.546875)"/>
<path d="M0 0 C0 3.69149093 -1.09349807 6.19075145 -2.4375 9.625 C-2.88996094 10.79289062 -3.34242188 11.96078125 -3.80859375 13.1640625 C-5 16 -5 16 -6 17 C-13.58502963 17.55104916 -21.46909049 16.92006587 -29 16 C-29.495 15.505 -29.495 15.505 -30 15 C-35.82152241 13.88258026 -41.52529314 13.88216617 -47.4375 13.9375 C-48.35982422 13.94201172 -49.28214844 13.94652344 -50.23242188 13.95117188 C-52.48835048 13.96286062 -54.74413967 13.97924545 -57 14 C-57.33 14.99 -57.66 15.98 -58 17 C-64.34241995 18.15316726 -70.56688704 18.09507063 -77 18 C-77 17.67 -77 17.34 -77 17 C-71.72 16.67 -66.44 16.34 -61 16 C-61 15.34 -61 14.68 -61 14 C-49.07550187 9.75568711 -37.1419884 9.68170172 -25.0390625 13.19921875 C-19.45732511 14.66998503 -13.71930844 15.28085619 -8 16 C-8 15.34 -8 14.68 -8 14 C-7.34 14 -6.68 14 -6 14 C-5.9071875 12.7625 -5.9071875 12.7625 -5.8125 11.5 C-4.76703783 6.99647063 -2.59542785 3.77342647 0 0 Z " fill="#BCB2A8" transform="translate(541,370)"/>
<path d="M0 0 C1.29808594 -0.01675781 2.59617187 -0.03351563 3.93359375 -0.05078125 C7.67811655 0.3240741 9.55894628 1.11915345 12.5625 3.3125 C12.2325 4.6325 11.9025 5.9525 11.5625 7.3125 C8.39639453 8.33017676 6.73218298 8.10492075 3.5625 7.3125 C-1.32224633 7.15492754 -5.61501733 7.4891493 -10.4375 8.3125 C-11.4375 7.3125 -11.4375 7.3125 -11.5 4.75 C-11.479375 3.945625 -11.45875 3.14125 -11.4375 2.3125 C-7.70976672 -0.06831693 -4.34921514 0.01293126 0 0 Z " fill="#A3948B" transform="translate(521.4375,356.6875)"/>
<path d="M0 0 C5.75 3.75 5.75 3.75 8 6 C8.25878906 8.21484375 8.25878906 8.21484375 8.265625 10.9375 C8.26949219 12.40316406 8.26949219 12.40316406 8.2734375 13.8984375 C8.26570312 14.92195312 8.25796875 15.94546875 8.25 17 C8.25773438 18.02351562 8.26546875 19.04703125 8.2734375 20.1015625 C8.27085937 21.07867188 8.26828125 22.05578125 8.265625 23.0625 C8.26336914 23.96097656 8.26111328 24.85945312 8.25878906 25.78515625 C8 28 8 28 6 30 C4.04467773 30.24291992 4.04467773 30.24291992 1.68359375 30.23046875 C0.83732422 30.22853516 -0.00894531 30.22660156 -0.88085938 30.22460938 C-2.20827148 30.20624023 -2.20827148 30.20624023 -3.5625 30.1875 C-4.45130859 30.18685547 -5.34011719 30.18621094 -6.25585938 30.18554688 C-12.85978903 30.14021097 -12.85978903 30.14021097 -14 29 C-14.08726223 27.21928754 -14.10699041 25.4351686 -14.09765625 23.65234375 C-14.09443359 22.57275391 -14.09121094 21.49316406 -14.08789062 20.38085938 C-14.07951172 19.24455078 -14.07113281 18.10824219 -14.0625 16.9375 C-14.05798828 15.79732422 -14.05347656 14.65714844 -14.04882812 13.48242188 C-14.03699747 10.65489649 -14.0205141 7.8274736 -14 5 C-12.68 4.34 -11.36 3.68 -10 3 C-10.33 3.66 -10.66 4.32 -11 5 C-11.15266612 6.73868744 -11.24932596 8.48247501 -11.31640625 10.2265625 C-11.35830078 11.2578125 -11.40019531 12.2890625 -11.44335938 13.3515625 C-11.50233398 14.97191406 -11.50233398 14.97191406 -11.5625 16.625 C-11.60568359 17.71296875 -11.64886719 18.8009375 -11.69335938 19.921875 C-11.79964427 22.6144257 -11.90034504 25.30719576 -12 28 C-6.06 28 -0.12 28 6 28 C5.96701986 24.41415951 5.89987405 20.83457638 5.8125 17.25 C5.80669922 16.23421875 5.80089844 15.2184375 5.79492188 14.171875 C5.77773446 8.15829187 5.77773446 8.15829187 2.44921875 3.421875 C1.23685547 2.71804688 1.23685547 2.71804688 0 2 C0 1.34 0 0.68 0 0 Z " fill="#D17271" transform="translate(619,519)"/>
<path d="M0 0 C1.14519012 2.29038024 1.07351912 3.53068537 1 6.0625 C1 7.361875 1 8.66125 1 10 C1.33 10.33 1.66 10.66 2 11 C3.45955445 10.94185042 4.91797587 10.85373635 6.375 10.75 C8.8515625 10.7109375 8.8515625 10.7109375 11 11 C12.75 13.375 12.75 13.375 14 16 C16.57099402 17.34689915 16.57099402 17.34689915 19 18 C17.83242263 21.32310483 16.85051143 23.83361132 14 26 C13.01 26 12.02 26 11 26 C8.84375 23.734375 8.84375 23.734375 6.5 20.75 C5.7265625 19.77546875 4.953125 18.8009375 4.15625 17.796875 C3.4446875 16.87390625 2.733125 15.9509375 2 15 C1.41734375 14.32839844 0.8346875 13.65679687 0.234375 12.96484375 C-1.35063102 10.4418753 -1.33729975 8.76759669 -1.25 5.8125 C-1.23453125 4.93207031 -1.2190625 4.05164063 -1.203125 3.14453125 C-1 1 -1 1 0 0 Z " fill="#F3ECEA" transform="translate(574,463)"/>
<path d="M0 0 C-0.48285322 7.36351166 -0.48285322 7.36351166 -2.625 10 C-5.93348303 11.39304549 -8.4495147 11.38732567 -12 11 C-14 9.8125 -14 9.8125 -15 8 C-14.875 5.4375 -14.875 5.4375 -14 3 C-9.41201726 -0.05865516 -5.43293781 -0.12634739 0 0 Z " fill="#F0F0F0" transform="translate(443,704)"/>
<path d="M0 0 C0.33 0.66 0.66 1.32 1 2 C0.29296875 4.09375 0.29296875 4.09375 -0.8125 6.5 C-1.16957031 7.2940625 -1.52664063 8.088125 -1.89453125 8.90625 C-3 11 -3 11 -5 13 C-5.37051993 15.3245339 -5.37051993 15.3245339 -5.4140625 18.0078125 C-5.45273437 18.99394531 -5.49140625 19.98007812 -5.53125 20.99609375 C-5.5621875 22.02863281 -5.593125 23.06117188 -5.625 24.125 C-5.66367187 25.16527344 -5.70234375 26.20554687 -5.7421875 27.27734375 C-5.83664766 29.85138311 -5.92221214 32.42541155 -6 35 C-5.34 35 -4.68 35 -4 35 C-3.87496094 34.45214844 -3.74992188 33.90429688 -3.62109375 33.33984375 C-2.91530363 30.68092374 -2.01151848 28.14454651 -1.0625 25.5625 C-0.72347656 24.63566406 -0.38445313 23.70882813 -0.03515625 22.75390625 C0.94201396 20.15426476 1.95813099 17.57430416 3 15 C5.31 15 7.62 15 10 15 C10 14.34 10 13.68 10 13 C11.98 13 13.96 13 16 13 C12.25474201 16.74525799 8.01729091 16.68909949 3 17 C3.12375 18.22589844 3.12375 18.22589844 3.25 19.4765625 C2.92044522 24.12122516 1.17104263 27.31896428 -1 31.375 C-1.3815625 32.11105469 -1.763125 32.84710938 -2.15625 33.60546875 C-3.09331735 35.4093234 -4.04519207 37.20547259 -5 39 C-5.66 39 -6.32 39 -7 39 C-7.08690253 34.56262288 -7.14035926 30.12546366 -7.1875 25.6875 C-7.21263672 24.42486328 -7.23777344 23.16222656 -7.26367188 21.86132812 C-7.27333984 20.65283203 -7.28300781 19.44433594 -7.29296875 18.19921875 C-7.31653442 16.52605591 -7.31653442 16.52605591 -7.34057617 14.8190918 C-6.95828737 11.65472708 -6.41518619 10.94310791 -4 9 C-3.04875256 7.00196949 -3.04875256 7.00196949 -2.375 4.875 C-1.08333333 1.08333333 -1.08333333 1.08333333 0 0 Z " fill="#D9AC8F" transform="translate(545,378)"/>
<path d="M0 0 C1.32 0 2.64 0 4 0 C4.87184104 5.66696677 2.57430047 8.75356018 -0.4921875 13.2421875 C-1.23855469 14.11230469 -1.23855469 14.11230469 -2 15 C-2.66 15 -3.32 15 -4 15 C-4.28875 15.804375 -4.5775 16.60875 -4.875 17.4375 C-6 20 -6 20 -8 21 C-8.55373592 16.57011268 -7.11285426 13.8542968 -5.0859375 10.06640625 C-4.05064871 8.09637829 -3.16474909 6.11717975 -2.3125 4.0625 C-1 1 -1 1 0 0 Z " fill="#9DB6C1" transform="translate(547,364)"/>
<path d="M0 0 C1.33496612 0.26266695 2.66788705 0.53572653 4 0.8125 C5.11375 1.03873047 5.11375 1.03873047 6.25 1.26953125 C8.54856306 1.88008706 10.53373607 2.62401083 12.71875 3.53125 C17.29512794 5.28878988 21.63629739 5.54887655 26.5 5.6875 C27.32242187 5.72166016 28.14484375 5.75582031 28.9921875 5.79101562 C30.9943455 5.8724988 32.99714568 5.93794575 35 6 C35 5.34 35 4.68 35 4 C41.96428571 1.72321429 41.96428571 1.72321429 46 3 C39.51412913 6.4481348 34.19188877 7.65239266 26.875 7.5 C25.96790283 7.49226563 25.06080566 7.48453125 24.1262207 7.4765625 C15.97571147 7.26972959 8.69718864 5.64849502 1 3 C1.33 4.093125 1.66 5.18625 2 6.3125 C3 10 3 10 3 13 C0.75393573 11.22555028 0.04918998 10.41647515 -0.29296875 7.51953125 C-0.25816406 6.62621094 -0.22335937 5.73289062 -0.1875 4.8125 C-0.16042969 3.91144531 -0.13335937 3.01039063 -0.10546875 2.08203125 C-0.07066406 1.39496094 -0.03585937 0.70789063 0 0 Z " fill="#B49B8D" transform="translate(474,434)"/>
<path d="M0 0 C0.66 0 1.32 0 2 0 C3.2190947 10.00673567 3.2190947 10.00673567 0.39453125 14.625 C-1.64048328 16.88527881 -3.74801173 18.95730432 -6 21 C-6.94168333 21.97514416 -7.88002905 22.95354292 -8.8125 23.9375 C-11 26 -11 26 -14 28 C-12.49040455 24.77155825 -10.6640613 21.92057689 -8.625 19 C-8.03976562 18.154375 -7.45453125 17.30875 -6.8515625 16.4375 C-5 14 -5 14 -2.8203125 11.921875 C-0.23565423 9.19300833 -0.28112527 6.65462851 0 3 C-0.66 2.67 -1.32 2.34 -2 2 C-1.34 1.34 -0.68 0.68 0 0 Z " fill="#CDB19E" transform="translate(522,433)"/>
<path d="M0 0 C3.58743904 3.35599136 4.85865858 5.29784552 5.2734375 10.29296875 C5.48171981 18.27979436 5.32660248 23.63406045 0 30 C-0.33 30 -0.66 30 -1 30 C-1.20086443 26.28400809 -1.1519437 25.22791555 1 22 C1.28171897 18.57573418 1.28171897 18.57573418 1.1875 14.75 C1.18105469 13.46609375 1.17460938 12.1821875 1.16796875 10.859375 C1.0064078 7.14723029 0.59278744 3.66105522 0 0 Z " fill="#DCAC8E" transform="translate(544,340)"/>
<path d="M0 0 C0.33 0.33 0.66 0.66 1 1 C2.39124735 1.18452333 3.78877264 1.32269658 5.1875 1.4375 C9.05048653 1.82196785 12.32614232 2.72213646 16 4 C18.32694964 4.37531446 20.65976685 4.71917202 23 5 C23 5.33 23 5.66 23 6 C17.32309063 6.14670665 12.18319617 5.68352456 6.625 4.5625 C5.91472656 4.42779297 5.20445312 4.29308594 4.47265625 4.15429688 C-0.70579387 3.14710307 -0.70579387 3.14710307 -3 2 C-4.46240458 1.90460622 -5.92902014 1.86926519 -7.39453125 1.8671875 C-8.26787109 1.86589844 -9.14121094 1.86460937 -10.04101562 1.86328125 C-10.95560547 1.86714844 -11.87019531 1.87101562 -12.8125 1.875 C-13.71548828 1.87113281 -14.61847656 1.86726563 -15.54882812 1.86328125 C-19.82011865 1.86955794 -23.83941882 1.90097856 -28 3 C-27.67 2.01 -27.34 1.02 -27 0 C-17.89487194 -0.95306013 -9.04968044 -1.69681508 0 0 Z " fill="#8ABBD2" transform="translate(511,384)"/>
<path d="M0 0 C-5.23856323 4.97264632 -9.34443056 8.79758394 -16.875 9.125 C-17.57625 9.08375 -18.2775 9.0425 -19 9 C-19 9.66 -19 10.32 -19 11 C-21.87525669 11.05425013 -24.74947646 11.09379277 -27.625 11.125 C-28.43324219 11.14175781 -29.24148438 11.15851563 -30.07421875 11.17578125 C-34.80093815 11.21420986 -38.55387702 10.82737094 -43 9 C-39.98968256 8.06576355 -39.13349732 7.95550089 -36 9 C-28.22389253 9.55315676 -22.1282349 9.1105025 -15 6 C-13.68 6 -12.36 6 -11 6 C-11 5.34 -11 4.68 -11 4 C-9.35546875 2.67578125 -9.35546875 2.67578125 -7.1875 1.3125 C-6.47980469 0.85488281 -5.77210938 0.39726562 -5.04296875 -0.07421875 C-3 -1 -3 -1 0 0 Z " fill="#88AEC1" transform="translate(528,429)"/>
<path d="M0 0 C3.875 1.75 3.875 1.75 5 4 C-16.12 4 -37.24 4 -59 4 C-59 3.67 -59 3.34 -59 3 C-30.29 2.505 -30.29 2.505 -1 2 C-0.67 1.34 -0.34 0.68 0 0 Z " fill="#3F5F7D" transform="translate(532,591)"/>
<path d="M0 0 C0.33 0 0.66 0 1 0 C1.21690267 4.09266091 1.41378687 8.18574198 1.59204102 12.28027344 C1.65552913 13.67343971 1.72451436 15.06636665 1.79907227 16.45898438 C1.90519436 18.45892298 1.99001904 20.45995606 2.07421875 22.4609375 C2.13182373 23.66540527 2.18942871 24.86987305 2.2487793 26.11083984 C2.16668213 27.0642627 2.08458496 28.01768555 2 29 C1.01 29.66 0.02 30.32 -1 31 C-1.02465622 26.74585377 -1.04283899 22.49174502 -1.05493164 18.23754883 C-1.05997101 16.78929927 -1.06680253 15.34105483 -1.07543945 13.89282227 C-1.08752247 11.81525412 -1.09323211 9.73775303 -1.09765625 7.66015625 C-1.10289307 6.40855713 -1.10812988 5.15695801 -1.11352539 3.86743164 C-1 1 -1 1 0 0 Z " fill="#AEB5B6" transform="translate(537,390)"/>
<path d="M0 0 C0.33 0 0.66 0 1 0 C1.16435547 1.33804687 1.16435547 1.33804687 1.33203125 2.703125 C1.49058594 3.87359375 1.64914062 5.0440625 1.8125 6.25 C1.96332031 7.41015625 2.11414063 8.5703125 2.26953125 9.765625 C3.00450886 13.01996437 3.73075141 14.60625398 6 17 C9.8408768 19.02712942 13.71770407 19.49620048 18 20 C18 20.66 18 21.32 18 22 C11.90059045 22.42064893 8.86336347 22.08964656 4 18 C-0.82601611 12.65225241 -1.22020514 8.93646206 -1 2 C-0.67 1.34 -0.34 0.68 0 0 Z " fill="#D09A7A" transform="translate(432,373)"/>
<path d="M0 0 C6.57791873 0.41044485 12.74051886 0.86608597 19 3 C19 3.66 19 4.32 19 5 C16.39547729 4.85913398 13.79149803 4.71251536 11.1875 4.5625 C10.08051758 4.50352539 10.08051758 4.50352539 8.95117188 4.44335938 C5.76928658 4.25618965 3.03837622 4.01279207 0 3 C0 2.01 0 1.02 0 0 Z " fill="#48A6D4" transform="translate(510,396)"/>
<path d="M0 0 C0 0.99 0 1.98 0 3 C-5.76081841 4.2982126 -11.08739655 5.25706972 -17 5 C-17 4.01 -17 3.02 -17 2 C-11.23918159 0.7017874 -5.91260345 -0.25706972 0 0 Z " fill="#3FA1D2" transform="translate(528,408)"/>
<path d="M0 0 C5.91260345 -0.25706972 11.23918159 0.7017874 17 2 C17 2.99 17 3.98 17 5 C14.74943278 4.88566637 12.49953326 4.75813564 10.25 4.625 C8.99703125 4.55539062 7.7440625 4.48578125 6.453125 4.4140625 C3.39001879 4.04676696 1.58025734 3.60288714 -1 2 C-0.67 1.34 -0.34 0.68 0 0 Z " fill="#3AA1D4" transform="translate(470,408)"/>
<path d="M0 0 C1.73329443 5.19988328 1.05816631 10.76155686 0.92285156 16.19628906 C0.89103345 17.64498741 0.86981832 19.09395867 0.859375 20.54296875 C0.84408292 22.6418061 0.79665178 24.73779295 0.7421875 26.8359375 C0.7201123 28.08938965 0.69803711 29.3428418 0.67529297 30.63427734 C-0.16695372 34.83211281 -1.69166883 36.36699188 -5 39 C-5.66 39 -6.32 39 -7 39 C-7 38.34 -7 37.68 -7 37 C-6.360625 36.46375 -5.72125 35.9275 -5.0625 35.375 C0.14362717 29.38006568 -1.63475814 16.82235467 -1.39453125 9.22851562 C-1.35714844 8.18501953 -1.31976562 7.14152344 -1.28125 6.06640625 C-1.25095703 5.11709229 -1.22066406 4.16777832 -1.18945312 3.18969727 C-1 1 -1 1 0 0 Z " fill="#86BDD9" transform="translate(536,388)"/>
<path d="M0 0 C4.70588235 0.70588235 4.70588235 0.70588235 6 2 C6.125 5 6.125 5 6 8 C5 9 5 9 2.5 9.125 C0 9 0 9 -1 8 C-1.125 4.5 -1.125 4.5 -1 1 C-0.67 0.67 -0.34 0.34 0 0 Z " fill="#634B3C" transform="translate(519,369)"/>
<path d="M0 0 C4.70588235 0.70588235 4.70588235 0.70588235 6 2 C6.125 5 6.125 5 6 8 C5 9 5 9 2.5 9.125 C0 9 0 9 -1 8 C-1.125 4.5 -1.125 4.5 -1 1 C-0.67 0.67 -0.34 0.34 0 0 Z " fill="#614B3B" transform="translate(474,369)"/>
<path d="M0 0 C0 3.74194053 -1.01641341 4.6769419 -3.3125 7.5625 C-4.23482422 8.74005859 -4.23482422 8.74005859 -5.17578125 9.94140625 C-7 12 -7 12 -10 14 C-14.6628046 13.82447708 -16.70011141 11.73570283 -19.8125 8.4375 C-20.60269531 7.61121094 -21.39289063 6.78492188 -22.20703125 5.93359375 C-22.79871094 5.29550781 -23.39039063 4.65742188 -24 4 C-23.67 3.34 -23.34 2.68 -23 2 C-22.39671875 2.6496875 -21.7934375 3.299375 -21.171875 3.96875 C-20.37265625 4.8040625 -19.5734375 5.639375 -18.75 6.5 C-17.96109375 7.3353125 -17.1721875 8.170625 -16.359375 9.03125 C-14.00027807 11.42712294 -14.00027807 11.42712294 -10 11 C-6.23418598 7.71698265 -3.14626179 3.86540735 0 0 Z " fill="#8CB1C5" transform="translate(511,458)"/>
<path d="M0 0 C1.01416992 0.00483398 1.01416992 0.00483398 2.04882812 0.00976562 C4.02302734 -0.01537109 4.02302734 -0.01537109 6.03710938 -0.04101562 C9.82494821 0.33096855 11.70450279 1.09970895 14.73632812 3.32226562 C14.40632812 4.64226562 14.07632813 5.96226562 13.73632812 7.32226562 C10.08239275 8.59050047 7.24562787 8.07941884 3.48632812 7.38476562 C2.40867187 7.19011719 1.33101562 6.99546875 0.22070312 6.79492188 C-1.0090625 6.56095703 -1.0090625 6.56095703 -2.26367188 6.32226562 C-2.26367188 5.99226563 -2.26367188 5.66226562 -2.26367188 5.32226562 C2.35632813 5.32226562 6.97632813 5.32226562 11.73632812 5.32226562 C11.40632812 4.66226562 11.07632813 4.00226563 10.73632812 3.32226562 C7.11765254 2.11604043 3.81126562 2.21409645 0.04882812 2.25976562 C-0.65306641 2.26427734 -1.35496094 2.26878906 -2.078125 2.2734375 C-3.80667726 2.28519636 -5.53518553 2.30313109 -7.26367188 2.32226562 C-4.80782949 -0.13357676 -3.36212682 0.0367994 0 0 Z " fill="#B09280" transform="translate(519.263671875,356.677734375)"/>
<path d="M0 0 C2.10388569 -0.05402274 4.20816714 -0.09280256 6.3125 -0.125 C8.07013672 -0.15980469 8.07013672 -0.15980469 9.86328125 -0.1953125 C13 0 13 0 16 2 C15.21496094 2.06058594 14.42992187 2.12117188 13.62109375 2.18359375 C10.41250487 2.43949348 7.20654287 2.71977778 4 3 C3.24589844 3.04898437 2.49179687 3.09796875 1.71484375 3.1484375 C-0.31631364 3.28465992 -0.31631364 3.28465992 -3 4 C-4.25827123 5.84982472 -4.25827123 5.84982472 -5 8 C-7.125 9.75 -7.125 9.75 -9 11 C-9 10.01 -9 9.02 -9 8 C-8.34 8 -7.68 8 -7 8 C-7 7.34 -7 6.68 -7 6 C-5.1875 3.875 -5.1875 3.875 -3 2 C-2.01 2 -1.02 2 0 2 C0 1.34 0 0.68 0 0 Z " fill="#BEA193" transform="translate(459,333)"/>
<path d="M0 0 C2.625 0.375 2.625 0.375 5 1 C5.625 3.375 5.625 3.375 6 6 C5.34 6.66 4.68 7.32 4 8 C1.375 7.625 1.375 7.625 -1 7 C-1.625 4.625 -1.625 4.625 -2 2 C-1.34 1.34 -0.68 0.68 0 0 Z " fill="#28537B" transform="translate(445,527)"/>
<path d="M0 0 C2.18971822 3.28457734 3.27153595 6.33604556 4.5625 10.0625 C6.08853945 14.60963466 6.08853945 14.60963466 8 19 C8.33 15.37 8.66 11.74 9 8 C9.33 8 9.66 8 10 8 C10 13.28 10 18.56 10 24 C3.17762076 17.17762076 0.46917169 9.53982442 0 0 Z " fill="#C59275" transform="translate(450,395)"/>
<path d="M0 0 C0.99 0.66 1.98 1.32 3 2 C2.67 3.65 2.34 5.3 2 7 C1.01 6.835 0.02 6.67 -1 6.5 C-7.46858266 5.58709519 -13.57568186 5.92928031 -20 7 C-20.33 5.35 -20.66 3.7 -21 2 C-20.01 2 -19.02 2 -18 2 C-18.33 2.99 -18.66 3.98 -19 5 C-18.38125 4.835 -17.7625 4.67 -17.125 4.5 C-10.74908377 3.4798534 -4.31959197 3.66955959 2 5 C1.34 3.35 0.68 1.7 0 0 Z " fill="#AE927F" transform="translate(485,358)"/>
<path d="M0 0 C0 0.66 0 1.32 0 2 C0.99 2.33 1.98 2.66 3 3 C2.67 3.66 2.34 4.32 2 5 C-4.875 2.125 -4.875 2.125 -6 1 C-7.34747084 0.76924918 -8.70377565 0.58846937 -10.0625 0.4375 C-11.361875 0.293125 -12.66125 0.14875 -14 0 C-14 0.66 -14 1.32 -14 2 C-18.53701494 3.45184478 -22.18061476 4.23509196 -27 4 C-18.17052891 -0.78263017 -9.87112413 -2.63229977 0 0 Z " fill="#D5AA90" transform="translate(541,335)"/>
<path d="M0 0 C0 3.69149093 -1.09349807 6.19075145 -2.4375 9.625 C-2.88996094 10.79289062 -3.34242188 11.96078125 -3.80859375 13.1640625 C-5 16 -5 16 -6 17 C-11.03761016 17.31718286 -16.09961113 17.30677037 -21 16 C-21 15.67 -21 15.34 -21 15 C-16.48382401 14.92345464 -12.40914783 14.89771304 -8 16 C-8 15.34 -8 14.68 -8 14 C-7.34 14 -6.68 14 -6 14 C-5.938125 13.175 -5.87625 12.35 -5.8125 11.5 C-4.76703783 6.99647063 -2.59542785 3.77342647 0 0 Z " fill="#D5AF95" transform="translate(541,370)"/>
<path d="M0 0 C0.66 0 1.32 0 2 0 C2 7.59 2 15.18 2 23 C1.34 22.67 0.68 22.34 0 22 C-0.3440312 19.40630392 -0.56055903 16.91825194 -0.6875 14.3125 C-0.73455078 13.60416016 -0.78160156 12.89582031 -0.83007812 12.16601562 C-1.0675076 7.95066939 -0.87176849 4.16220296 0 0 Z " fill="#FEDDDE" transform="translate(603,524)"/>
<path d="M0 0 C1.1055189 0.93590504 2.20935453 1.87379858 3.3125 2.8125 C3.92738281 3.33457031 4.54226563 3.85664063 5.17578125 4.39453125 C7 6 7 6 8.59375 7.65625 C10.30960016 9.29584015 11.69209212 9.60208485 14 10 C14.3403125 8.824375 14.3403125 8.824375 14.6875 7.625 C16 5 16 5 18.625 3.6875 C19.800625 3.3471875 19.800625 3.3471875 21 3 C19.43681592 6.83690637 17.2046685 9.39154889 14 12 C9.39638159 11.83287194 7.29789269 9.78637302 4.1875 6.5625 C3.39730469 5.75941406 2.60710937 4.95632813 1.79296875 4.12890625 C0 2 0 2 0 0 Z " fill="#C3AFA1" transform="translate(487,458)"/>
<path d="M0 0 C-0.33 1.65 -0.66 3.3 -1 5 C-3.31 5.33 -5.62 5.66 -8 6 C-8 5.34 -8 4.68 -8 4 C-9.98 4 -11.96 4 -14 4 C-9.52281208 1.01520806 -5.36175907 0 0 0 Z " fill="#94C3E0" transform="translate(437,461)"/>
<path d="M0 0 C4.29 0 8.58 0 13 0 C12.67 0.99 12.34 1.98 12 3 C8.04 3 4.08 3 0 3 C0 2.01 0 1.02 0 0 Z " fill="#3BA1D4" transform="translate(495,424)"/>
<path d="M0 0 C-2.82181006 1.88120671 -5.06765104 2.79940161 -8.25 3.875 C-12.86494119 5.50524483 -16.85089827 7.4183367 -21 10 C-21 9.01 -21 8.02 -21 7 C-14.55573311 1.61112173 -8.22424531 -0.27878798 0 0 Z " fill="#E6F9FD" transform="translate(426,463)"/>
<path d="M0 0 C2 1.375 2 1.375 4 3 C4 3.66 4 4.32 4 5 C9.28 5 14.56 5 20 5 C20 5.33 20 5.66 20 6 C7.42996888 7.82836816 7.42996888 7.82836816 3 7 C0.89638304 4.5776532 0 3.21754366 0 0 Z " fill="#CAA790" transform="translate(460,380)"/>
<path d="M0 0 C3.66558309 3.42909386 4.90310538 5.34533795 5.203125 10.46875 C5.22432695 11.81242358 5.23976151 13.15619816 5.25 14.5 C5.2809375 15.51513672 5.2809375 15.51513672 5.3125 16.55078125 C5.35188564 21.54291143 5.35188564 21.54291143 3.484375 23.96875 C2.74960937 24.47921875 2.74960937 24.47921875 2 25 C2.165 24.236875 2.33 23.47375 2.5 22.6875 C3.95690863 12.30031409 3.95690863 12.30031409 0 3 C0 2.01 0 1.02 0 0 Z " fill="#C3AA9B" transform="translate(544,340)"/>
<path d="M0 0 C1.65 1.65 3.3 3.3 5 5 C4.29875 4.71125 3.5975 4.4225 2.875 4.125 C0.05849177 3.70325269 0.05849177 3.70325269 -1.59765625 5.1640625 C-4.07634595 7.63666206 -6.05145143 10.07717714 -8 13 C-7.88759583 8.3914291 -6.61543768 6.27090202 -3.4375 3.125 C-2.30330262 2.07067568 -1.16107206 1.02465367 0 0 Z " fill="#82B9D7" transform="translate(472,444)"/>
<path d="M0 0 C1 3 1 3 -0.1796875 5.48046875 C-1.01886719 6.82044922 -1.01886719 6.82044922 -1.875 8.1875 C-2.42929687 9.08855469 -2.98359375 9.98960937 -3.5546875 10.91796875 C-4.03164063 11.60503906 -4.50859375 12.29210937 -5 13 C-5.33 13 -5.66 13 -6 13 C-6.39281865 8.54805536 -5.28459465 5.80765775 -3 2 C-2.01 1.34 -1.02 0.68 0 0 Z " fill="#88BBD5" transform="translate(545,372)"/>
<path d="M0 0 C-0.33 1.32 -0.66 2.64 -1 4 C-1.928125 3.9175 -2.85625 3.835 -3.8125 3.75 C-7.09105222 3.64696955 -7.09105222 3.64696955 -8.875 6 C-9.24625 6.66 -9.6175 7.32 -10 8 C-10.99 7.67 -11.98 7.34 -13 7 C-8.86474947 1.74711419 -6.98853363 -0.18887929 0 0 Z " fill="#C28E71" transform="translate(446,364)"/>
<path d="M0 0 C1.14662109 -0.00386719 1.14662109 -0.00386719 2.31640625 -0.0078125 C4.4375 0.125 4.4375 0.125 7.4375 1.125 C7.4375 1.785 7.4375 2.445 7.4375 3.125 C9.4175 3.125 11.3975 3.125 13.4375 3.125 C13.4375 3.455 13.4375 3.785 13.4375 4.125 C10.125 4.8125 10.125 4.8125 6.4375 5.125 C5.41645449 4.14649805 4.4168879 3.14519573 3.4375 2.125 C-0.81131273 1.7387443 -3.92219312 1.7952036 -7.5625 4.125 C-7.8925 3.135 -8.2225 2.145 -8.5625 1.125 C-5.64174603 0.28669704 -3.03585217 -0.01027361 0 0 Z " fill="#FEEEDE" transform="translate(597.5625,445.875)"/>
<path d="M0 0 C1.98 0 3.96 0 6 0 C2.25474201 3.74525799 -1.98270909 3.68909949 -7 4 C-7 5.98 -7 7.96 -7 10 C-7.33 10 -7.66 10 -8 10 C-8.04241723 7.66705225 -8.04092937 5.33297433 -8 3 C-7 2 -7 2 -3.4375 1.9375 C-2.303125 1.958125 -1.16875 1.97875 0 2 C0 1.34 0 0.68 0 0 Z " fill="#E3B293" transform="translate(555,391)"/>
<path d="M0 0 C7.10993658 -0.7230444 7.10993658 -0.7230444 9.64453125 1.3359375 C11 3 11 3 13 6 C12.67 6.66 12.34 7.32 12 8 C11.278125 7.154375 10.55625 6.30875 9.8125 5.4375 C7.28860409 2.68363879 7.28860409 2.68363879 4.375 3.125 C3.199375 3.558125 3.199375 3.558125 2 4 C1.01 4.33 0.02 4.66 -1 5 C-0.67 3.35 -0.34 1.7 0 0 Z " fill="#DEAC8C" transform="translate(552,365)"/>
<path d="M0 0 C1.27345471 4.28854601 0.73248466 6.81316208 -1 11 C-3.15036754 13.26432711 -5.480627 15.16099244 -8 17 C-7.234375 13.2109375 -7.234375 13.2109375 -5.125 11.3125 C-2.08465038 8.00388424 -1.20306632 4.26541694 0 0 Z " fill="#F9E8DE" transform="translate(625,468)"/>
<path d="M0 0 C0 0.66 0 1.32 0 2 C-1.269553 2.64834654 -2.54069706 3.29357815 -3.8125 3.9375 C-4.52019531 4.29714844 -5.22789062 4.65679687 -5.95703125 5.02734375 C-8 6 -8 6 -11 7 C-11.33 7.99 -11.66 8.98 -12 10 C-14.0625 10.6875 -14.0625 10.6875 -16 11 C-12.90063948 6.2100792 -6.06995059 0 0 0 Z " fill="#8EBDD7" transform="translate(416,467)"/>
<path d="M0 0 C2.38564077 0.57584432 4.66682784 1.22227595 7 2 C7 2.66 7 3.32 7 4 C4.03 3.505 4.03 3.505 1 3 C1.33 4.093125 1.66 5.18625 2 6.3125 C3 10 3 10 3 13 C0.75393573 11.22555028 0.04918998 10.41647515 -0.29296875 7.51953125 C-0.25816406 6.62621094 -0.22335937 5.73289062 -0.1875 4.8125 C-0.16042969 3.91144531 -0.13335937 3.01039063 -0.10546875 2.08203125 C-0.07066406 1.39496094 -0.03585937 0.70789063 0 0 Z " fill="#C7967B" transform="translate(474,434)"/>
<path d="M0 0 C0.53625 0.37125 1.0725 0.7425 1.625 1.125 C0.7896875 1.49625 0.7896875 1.49625 -0.0625 1.875 C-2.77471127 3.34106015 -5.01087365 5.15489471 -7.375 7.125 C-6.715 5.475 -6.055 3.825 -5.375 2.125 C-6.365 1.795 -7.355 1.465 -8.375 1.125 C-2.95961538 -1.09038462 -2.95961538 -1.09038462 0 0 Z " fill="#E3D2CA" transform="translate(598.375,478.875)"/>
<path d="M0 0 C2.97 0.33 5.94 0.66 9 1 C9.33 2.32 9.66 3.64 10 5 C6.7 4.34 3.4 3.68 0 3 C0 2.01 0 1.02 0 0 Z " fill="#FAEBDC" transform="translate(616,452)"/>
<path d="M0 0 C0.33 0.99 0.66 1.98 1 3 C-2.17320782 6.53586014 -4.16743695 8.58578031 -9 9 C-6 6 -3 3 0 0 Z " fill="#E3F8FC" transform="translate(536,421)"/>
<path d="M0 0 C0.66 0 1.32 0 2 0 C1.57576756 1.46224799 1.13509755 2.91973412 0.6875 4.375 C0.44386719 5.18710937 0.20023438 5.99921875 -0.05078125 6.8359375 C-1 9 -1 9 -4 11 C-3.39301257 6.87248551 -1.96189209 3.6678852 0 0 Z " fill="#AFB4B3" transform="translate(542,370)"/>
<path d="M0 0 C3.16115776 1.36983503 3.9927092 1.9890638 6 5 C4.39125 4.6596875 4.39125 4.6596875 2.75 4.3125 C-0.92978576 3.64224175 -0.92978576 3.64224175 -3.4375 5.4375 C-3.953125 5.953125 -4.46875 6.46875 -5 7 C-3.70700306 4.11562221 -2.34058637 2.12780579 0 0 Z " fill="#88B6CD" transform="translate(524,444)"/>
<path d="M0 0 C1.32 0 2.64 0 4 0 C3.67 1.65 3.34 3.3 3 5 C1.68 5.33 0.36 5.66 -1 6 C-0.67 4.02 -0.34 2.04 0 0 Z " fill="#89BAD2" transform="translate(546,365)"/>
<path d="M0 0 C0 0.66 0 1.32 0 2 C-2.90600261 3.25664978 -4.79604584 4 -8 4 C-8.33 3.01 -8.66 2.02 -9 1 C-5.846632 0.29925156 -3.27275026 0 0 0 Z " fill="#9FCBE5" transform="translate(464,454)"/>
<path d="M0 0 C0 0.33 0 0.66 0 1 C-9.41002278 3.11161731 -9.41002278 3.11161731 -14 4 C-14.33 3.34 -14.66 2.68 -15 2 C-9.75614911 0.2520497 -5.52677733 -0.19392201 0 0 Z " fill="#D8A98C" transform="translate(480,363)"/>
<path d="M0 0 C3.51855159 1.40742064 4.38612834 2.66466523 6 6 C6.99 6.33 7.98 6.66 9 7 C9 7.66 9 8.32 9 9 C4.44984107 7.48328036 2.49942736 3.83108947 0 0 Z " fill="#C7967A" transform="translate(478,447)"/>
<path d="M0 0 C3.86648272 1.04097612 7.49461443 2.03698408 11 4 C9 5 9 5 6.8359375 4.44140625 C6.02382813 4.15136719 5.21171875 3.86132812 4.375 3.5625 C3.55773437 3.27503906 2.74046875 2.98757813 1.8984375 2.69140625 C1.27195312 2.46324219 0.64546875 2.23507812 0 2 C0 1.34 0 0.68 0 0 Z " fill="#7B9EB0" transform="translate(474,432)"/>
<path d="M0 0 C1 3 1 3 -0.25 6.0625 C-2 9 -2 9 -5 11 C-3.77472971 6.94718288 -2.30119506 3.55639236 0 0 Z " fill="#ADB3B2" transform="translate(543,379)"/>
<path d="M0 0 C0.66 0.33 1.32 0.66 2 1 C1.21625 1.763125 0.4325 2.52625 -0.375 3.3125 C-3.07257717 5.90891805 -3.07257717 5.90891805 -5 9 C-5.3125 6.75 -5.3125 6.75 -5 4 C-2.5 1.6875 -2.5 1.6875 0 0 Z " fill="#D0DAE1" transform="translate(537,476)"/>
<path d="M0 0 C0 0.66 0 1.32 0 2 C-6.96428571 4.27678571 -6.96428571 4.27678571 -11 3 C-9.73160474 2.49384702 -8.46016898 1.99530901 -7.1875 1.5 C-6.12595703 1.08234375 -6.12595703 1.08234375 -5.04296875 0.65625 C-3 0 -3 0 0 0 Z " fill="#86B8D1" transform="translate(516,435)"/>
<path d="M0 0 C2 2 2 2 2.4375 4 C2.87458708 6.38640738 2.87458708 6.38640738 6 8 C4.33388095 8.042721 2.66617115 8.04063832 1 8 C0 7 0 7 -0.0625 3.4375 C-0.041875 2.303125 -0.02125 1.16875 0 0 Z " fill="#674F3D" transform="translate(473,370)"/>
<path d="M0 0 C0.99 0 1.98 0 3 0 C3 1.98 3 3.96 3 6 C2.01 6 1.02 6 0 6 C0 4.02 0 2.04 0 0 Z " fill="#4E4945" transform="translate(520,371)"/>
<path d="M0 0 C2.97 0.99 5.94 1.98 9 3 C8.67 3.66 8.34 4.32 8 5 C5.03 4.01 2.06 3.02 -1 2 C-0.67 1.34 -0.34 0.68 0 0 Z " fill="#E4CEC1" transform="translate(609,478)"/>
<path d="M0 0 C0.99 0 1.98 0 3 0 C3 1.98 3 3.96 3 6 C2.01 5.67 1.02 5.34 0 5 C0 3.35 0 1.7 0 0 Z " fill="#504C47" transform="translate(475,371)"/>
</svg>
